<svg xmlns="http://www.w3.org/2000/svg" width="24" height="24" fill="none" viewBox="0 0 24 24"><g fill="currentColor" clip-path="url(#a)"><path d="M12 15.236q.038 0 .074.004c.561.038 1.002.5 1.002 1.071 0 .572-.44 1.034-1.002 1.072l-.074.005-.074-.004-.001-.001c-.561-.039-1-.5-1-1.072A1.07 1.07 0 0 1 12 15.237M12 4.97c.4 0 .733.332.733.733v7.53a.74.74 0 0 1-.733.733.74.74 0 0 1-.733-.734V5.703c0-.4.332-.733.733-.733"/><path fill-rule="evenodd" d="M16.45 1c.195 0 .39.078.527.225l5.818 6.013a.72.72 0 0 1 .205.51v8.505a.76.76 0 0 1-.205.509l-5.818 6.013a.73.73 0 0 1-.528.225H7.551a.73.73 0 0 1-.528-.225l-5.818-6.013a.72.72 0 0 1-.205-.51V7.748c0-.186.078-.372.205-.509l5.818-6.013A.73.73 0 0 1 7.551 1zM2.456 8.05v7.91l5.397 5.573h8.282l5.397-5.573V8.05l-5.397-5.573H7.854z" clip-rule="evenodd"/></g><defs><clipPath id="a"><path fill="currentColor" d="M0 0h24v24H0z"/></clipPath></defs></svg>