<svg width="24" height="24" viewBox="0 0 24 24" fill="none" xmlns="http://www.w3.org/2000/svg">
<g clip-path="url(#clip0_4536_365)">
<path d="M11.9951 17C12.5069 17 12.9999 17.4833 13 17.9951C13 18.507 12.507 19 11.9951 19C11.4833 18.9999 11 18.5069 11 17.9951C11.0001 17.4834 11.4834 17.0001 11.9951 17Z" fill="#3C3B44"/>
<path d="M12 7C12.551 7 13 7.43605 13 7.9707V15.0293C13 15.564 12.551 16 12 16C11.449 16 11 15.564 11 15.0293V7.9707C11 7.43605 11.449 7 12 7Z" fill="#3C3B44"/>
<path fill-rule="evenodd" clip-rule="evenodd" d="M12 3C17.5122 3 22 7.48775 22 13C22 18.5122 17.5122 23 12 23V22.9893C6.48775 22.9893 2 18.5011 2 13C2 7.49889 6.48775 3 12 3ZM12 4.66992C7.40089 4.66992 3.66992 8.40089 3.66992 13C3.66992 17.5991 7.40089 21.3301 12 21.3301C16.5991 21.3301 20.3301 17.5991 20.3301 13C20.3301 8.40089 16.588 4.66992 12 4.66992Z" fill="#3C3B44"/>
</g>
<defs>
<clipPath id="clip0_4536_365">
<rect width="24" height="24" fill="white"/>
</clipPath>
</defs>
</svg>
