<svg xmlns="http://www.w3.org/2000/svg" width="24" height="24" fill="none" viewBox="0 0 24 24"><g fill="currentColor" clip-path="url(#a)"><path d="M12.987 15c.511 0 1.004.483 1.004.995S13.498 17 12.987 17c-.512 0-.995-.493-.995-1.005s.483-.995.995-.995m.005-9c.55 0 .999.387.999.862v6.276c0 .475-.449.862-1 .862s-.998-.387-.998-.862V6.862c0-.475.448-.862.999-.862"/><path fill-rule="evenodd" d="M12.994 2c.665 0 1.269.325 1.623.858l9.051 14.024a2.07 2.07 0 0 1 .104 2.04A1.94 1.94 0 0 1 22.045 20H3.943c-.729 0-1.384-.408-1.728-1.078a2.05 2.05 0 0 1 .105-2.04l9.05-14.024c.344-.544.958-.858 1.624-.858m0 1.57c-.007 0-.23.012-.312.146L3.63 17.739a.5.5 0 0 0-.02.472c.073.136.198.22.333.22h18.092c.135 0 .27-.084.332-.22a.5.5 0 0 0-.02-.472L13.306 3.716c-.083-.136-.26-.147-.312-.147" clip-rule="evenodd"/></g><defs><clipPath id="a"><path fill="currentColor" d="M0 0h24v24H0z"/></clipPath></defs></svg>