<svg xmlns="http://www.w3.org/2000/svg" width="24" height="24" fill="none" viewBox="0 0 24 24"><g fill="currentColor" clip-path="url(#a)"><path d="M12.094 1c4.359 0 7.934 3.32 8.31 7.533.02-.01.04-.01.05-.01h.228C22.376 8.523 23 10.085 23 12v2.74c0 1.915-.624 3.466-2.318 3.466h-.247c-.03 1.896-1.595 3.428-3.507 3.428h-1.466A2.12 2.12 0 0 1 13.47 23h-2.754c-1.179 0-2.13-.944-2.13-2.102 0-1.159.951-2.101 2.13-2.102h2.754c.911 0 1.693.57 1.99 1.365h1.467c1.11 0 2.02-.894 2.02-2.004v-.55a1.1 1.1 0 0 1-.366-.814V9.948c0-.334.14-.6.357-.806-.057-3.577-2.922-6.482-6.496-6.66l-.349-.009C8.36 2.473 5.24 5.518 5.24 9.26a.3.3 0 0 1-.01.098c.108.167.178.364.178.59v6.845c0 1.08-1.455 1.413-1.862 1.413h-.238C1.614 18.206 1 16.656 1 14.74V12c0-1.915.614-3.477 2.308-3.477h.238q.09 0 .237.03C4.15 4.33 7.736 1 12.094 1"/><path d="M12.094 9.24a.49.49 0 0 1 .496.49v7.711a.49.49 0 0 1-.496.491.49.49 0 0 1-.495-.491v-7.71c0-.275.218-.491.495-.491M9.49 10.782c.277 0 .495.216.495.491v4.626c0 .275-.218.49-.496.49a.49.49 0 0 1-.495-.49v-4.626c0-.275.218-.491.495-.491m5.201 0c.277 0 .495.216.495.491v4.626c0 .275-.218.49-.495.49a.49.49 0 0 1-.496-.49v-4.626c0-.275.218-.491.496-.491m-7.796 1.542c.277 0 .495.216.495.491v1.601c0 .275-.218.49-.495.491a.49.49 0 0 1-.495-.491v-1.6c0-.276.218-.492.495-.492m10.401 0c.277 0 .495.216.495.491v1.601c0 .275-.218.49-.495.491a.49.49 0 0 1-.496-.491v-1.6c0-.276.218-.492.496-.492"/></g><defs><clipPath id="a"><path fill="currentColor" d="M0 0h24v24H0z"/></clipPath></defs></svg>