<svg width="24" height="24" viewBox="0 0 24 24" fill="none" xmlns="http://www.w3.org/2000/svg">
<g clip-path="url(#clip0_4191_618)">
<path d="M12 2C5.93565 2 1 5.98717 1 10.8844C1.01798 12.0631 1.29973 13.2236 1.82534 14.2838C2.35094 15.344 3.10757 16.2781 4.04174 17.0199L1.84174 21.3261C1.79655 21.4127 1.78054 21.5111 1.79601 21.6072C1.81148 21.7033 1.85763 21.7921 1.92783 21.8608C1.99757 21.93 2.08751 21.9761 2.18519 21.9929C2.28287 22.0098 2.38346 21.9964 2.47304 21.9546L8.35565 19.2715C9.53937 19.6109 10.7667 19.7816 12 19.7781C18.0643 19.7781 23 15.7909 23 10.8844C23 5.97779 18.0643 2 12 2Z" fill="#3C3B44"/>
</g>
<defs>
<clipPath id="clip0_4191_618">
<rect width="24" height="24" fill="white"/>
</clipPath>
</defs>
</svg>
