<svg xmlns="http://www.w3.org/2000/svg" width="24" height="24" fill="none" viewBox="0 0 24 24"><g fill="currentColor" clip-path="url(#a)"><path d="M17.042 9.708a7.3 7.3 0 0 1 3.336.807.21.21 0 0 0 .22 0 .22.22 0 0 0 .11-.193V2.375A1.375 1.375 0 0 0 19.333 1H2.375A1.375 1.375 0 0 0 1 2.375v11.046a1.34 1.34 0 0 0 1.375 1.329H3.75v3.208a.47.47 0 0 0 .266.422.46.46 0 0 0 .495-.082l3.997-3.548h1.411a.23.23 0 0 0 .211-.156 7.33 7.33 0 0 1 6.912-4.886"/><path fill-rule="evenodd" d="M17.042 11.083A5.958 5.958 0 1 0 23 17.042a5.97 5.97 0 0 0-5.958-5.959m-3.108 6.124a.677.677 0 0 1 .972 0l1.375 1.375 2.658-3.557a.689.689 0 0 1 1.218.592.7.7 0 0 1-.118.242l-2.658 3.548a1.375 1.375 0 0 1-2.072.146l-1.375-1.375a.677.677 0 0 1 0-.971" clip-rule="evenodd"/></g><defs><clipPath id="a"><path fill="currentColor" d="M0 0h24v24H0z"/></clipPath></defs></svg>