<svg xmlns="http://www.w3.org/2000/svg" width="24" height="24" fill="none" viewBox="0 0 24 24"><g clip-path="url(#a)"><path fill="currentColor" fill-rule="evenodd" d="M19.697 8.863c.26 0 .502.03.743.09C20.219 4.533 16.534 1 12.005 1 7.477 1 3.781 4.534 3.561 8.952c.24-.06.492-.09.743-.09h.702c.02 0 .05 0 .08.01.242-3.563 3.264-6.383 6.92-6.383 3.654 0 6.666 2.82 6.907 6.384l.005-.002-.005.002c-.482.03-1.817.357-1.817 1.181v6.92c0 .844 1.395 1.152 1.847 1.171v.209a2.04 2.04 0 0 1-2.048 2.025h-1.757a1.87 1.87 0 0 0-1.737-1.142h-2.802a1.9 1.9 0 0 0-1.898 1.887c0 1.032.854 1.876 1.898 1.876h2.802a1.9 1.9 0 0 0 1.737-1.132h1.757c1.958 0 3.555-1.578 3.555-3.514v-.288c1.455-.337 2.55-1.628 2.55-3.167v-2.77a3.27 3.27 0 0 0-2.56-3.177 3 3 0 0 0-.744-.09h-.703l-.006.001zM6.904 10.054v6.92c0 .874-1.516 1.181-1.898 1.181h-.702C2.486 18.155 1 16.696 1 14.9v-2.77a3.266 3.266 0 0 1 2.56-3.177c.241-.06.492-.09.744-.09h.702s.05 0 .08.01c.483.03 1.818.358 1.818 1.182" clip-rule="evenodd"/></g><defs><clipPath id="a"><path fill="currentColor" d="M0 0h24v24H0z"/></clipPath></defs></svg>