<svg xmlns="http://www.w3.org/2000/svg" width="24" height="24" fill="none" viewBox="0 0 24 24"><g clip-path="url(#a)"><path fill="currentColor" fill-rule="evenodd" d="M11.995 14.554a1.2 1.2 0 0 1-.81-.314L2.31 5.761a.42.42 0 0 1-.11-.446C2.3 5 2.577 5 2.833 5h18.334c.247 0 .531 0 .632.315a.42.42 0 0 1-.11.446l-8.882 8.479a1.2 1.2 0 0 1-.812.314m10.813-7.98a.17.17 0 0 1 .091.027q.046.02.075.06a.15.15 0 0 1 .026.09v10.5c0 .463-.193.908-.537 1.236-.344.329-.81.513-1.296.513H2.833c-.486 0-.952-.184-1.296-.512A1.7 1.7 0 0 1 1 17.25V6.75a.2.2 0 0 1 .035-.069.2.2 0 0 1 .066-.045.17.17 0 0 1 .183 0l8.929 8.497a2.62 2.62 0 0 0 1.787.7 2.6 2.6 0 0 0 .963-.18c.305-.12.582-.297.815-.52L22.716 6.6a.17.17 0 0 1 .091-.026" clip-rule="evenodd"/></g><defs><clipPath id="a"><path fill="currentColor" d="M0 0h24v24H0z"/></clipPath></defs></svg>