<svg xmlns="http://www.w3.org/2000/svg" width="24" height="24" fill="none" viewBox="0 0 24 24"><g clip-path="url(#a)"><path fill="currentColor" d="M19.62 10.683c-3-2.697-7.13-2.88-8.86-2.819a.3.3 0 0 1-.18-.07.27.27 0 0 1-.08-.182V5.005a1.02 1.02 0 0 0-.57-.909.99.99 0 0 0-1.07.142l-7.5 6.435a1.01 1.01 0 0 0-.36.778 1.02 1.02 0 0 0 .35.768l7.51 6.697a.995.995 0 0 0 1.485-.235c.101-.162.155-.35.155-.543v-3.09a.264.264 0 0 1 .2-.253c1.91-.405 8.13-1.162 11.36 4.94a.5.5 0 0 0 .559.25.5.5 0 0 0 .381-.483c0-3.828-1.14-6.809-3.38-8.82"/></g><defs><clipPath id="a"><path fill="currentColor" d="M0 0h24v24H0z"/></clipPath></defs></svg>