<svg xmlns="http://www.w3.org/2000/svg" width="24" height="24" fill="none" viewBox="0 0 24 24"><g fill="currentColor" clip-path="url(#a)"><path d="M5.216 8.821a.706.706 0 0 1 .553.696v2.422a6.33 6.33 0 0 0 1.88 4.358 6.02 6.02 0 0 0 4.337 1.735h.013a6.4 6.4 0 0 0 2.611-.564c.35-.158.76.005.913.364a.717.717 0 0 1-.355.935 7.7 7.7 0 0 1-2.476.653v2.87c0 .392-.31.71-.692.71a.7.7 0 0 1-.693-.71v-2.858a7.4 7.4 0 0 1-4.615-2.11 7.77 7.77 0 0 1-2.308-5.357V9.517c0-.392.31-.71.693-.71zM12 .35a4.83 4.83 0 0 1 3.434 1.402c.451.45.803.982 1.052 1.568.25.587.37 1.21.37 1.843v5.5c.082 1.192-.26 2.392-.915 3.419l1.034 1.072c.323-.412.61-.843.813-1.32a5.6 5.6 0 0 0 .452-2.19V9.288c0-.376.314-.687.692-.687l.138.013a.696.696 0 0 1 .555.674v2.355a7.1 7.1 0 0 1-1.67 4.528l2.851 2.953-.01-.01a.68.68 0 0 1-.018.972.69.69 0 0 1-.979-.018L7.357 7.188 3.194 2.89a.68.68 0 0 1 .018-.972.69.69 0 0 1 .978.018l2.973 3.09a4.8 4.8 0 0 1 .35-1.696q.374-.895 1.053-1.568A4.8 4.8 0 0 1 10.144.717C10.734.469 11.381.369 12 .35"/><path d="M7.986 10.24a.706.706 0 0 1 .553.695c0 1.211.24 2.05.567 2.634.325.581.758.95 1.207 1.19.927.493 1.932.433 2.127.41a.697.697 0 0 1 .765.628.705.705 0 0 1-.612.783c-.304.035-1.634.121-2.918-.561a4.34 4.34 0 0 1-1.77-1.743c-.471-.841-.751-1.935-.751-3.34 0-.392.31-.71.692-.71z"/></g><defs><clipPath id="a"><path fill="currentColor" d="M0 0h24v24H0z"/></clipPath></defs></svg>