<svg xmlns="http://www.w3.org/2000/svg" width="24" height="24" fill="none" viewBox="0 0 24 24"><g clip-path="url(#a)"><path fill="currentColor" d="m21.245 16.378-.562-.476c-.816-.705-1.802-1.565-3.255-1.348-.912.135-1.463.715-1.94 1.223-.414.435-.774.819-1.305.923-.7.134-1.484-.425-2.163-.975a15.2 15.2 0 0 1-3.234-3.564c-.254-.394-.933-1.451-.678-2.342.095-.332.477-.612.837-.881.149-.114.297-.218.414-.321l.265-.218c.466-.363.986-.767 1.156-1.461.339-1.358-.477-2.59-1.124-3.586l-.106-.155C8.935 2.254 8.118 1 6.846 1c-.117 0-.244.01-.36.031-.573.104-.976.456-1.316.757l-.498.414c-.318.26-.636.518-.859.767-1.834 2.02-2.311 5.088-1.272 8.02.731 2.063 2.067 4.156 3.955 6.239 1.346 1.471 3.192 3.326 5.62 4.59 1.07.56 2.386 1.13 4.05 1.182h.297c1.517 0 2.863-.363 3.977-1.078.339-.217.646-.497.933-.767.19-.176.318-.29.445-.404l.095-.083c.456-.383 1.018-.85 1.082-1.616.085-1.171-.933-2.01-1.76-2.674z"/></g><defs><clipPath id="a"><path fill="currentColor" d="M0 0h24v24H0z"/></clipPath></defs></svg>