<svg xmlns="http://www.w3.org/2000/svg" width="24" height="24" fill="none" viewBox="0 0 24 24"><g fill="currentColor" clip-path="url(#a)"><path d="M21.386 1.763a.98.98 0 0 1 1.339 0v.009c.37.353.37.924 0 1.277L2.622 22.238a1 1 0 0 1-1.347 0 .874.874 0 0 1 0-1.278l4.708-4.494c-1.443-1.658-2.506-3.334-3.104-4.982-.977-2.673-.522-5.481 1.177-7.33.228-.235.522-.471.807-.698l.436-.362.02-.016c.328-.278.732-.62 1.338-.726C8.213 2.07 9.153 3.466 9.77 4.39l.095.136c.617.915 1.395 2.074 1.053 3.397-.19.715-.72 1.123-1.157 1.458v.001l-.115.09q-.057.044-.113.09a6 6 0 0 1-.246.185l-.144.106c-.266.19-.57.407-.626.589-.19.643.36 1.467.57 1.775.18.263.36.517.55.762zM16.47 14.174c1.461-.215 2.442.613 3.17 1.227l.028.024.503.407h-.009c.76.598 1.803 1.422 1.708 2.627-.056.792-.645 1.28-1.072 1.633l-.01.007-.085.073-.136.12q-.131.11-.253.224l-.074.066c-.253.225-.515.46-.809.64-1.063.662-2.325.997-3.758.997h-.275c-1.566-.045-2.79-.561-3.787-1.068-1.016-.517-1.984-1.17-2.961-1.994a.663.663 0 0 1-.029-.988l2.714-2.555a.746.746 0 0 1 .93-.053c.56.39.978.561 1.282.498.351-.073.598-.318.978-.707.446-.462 1.006-1.042 1.945-1.178"/></g><defs><clipPath id="a"><path fill="currentColor" d="M0 0h24v24H0z"/></clipPath></defs></svg>