<svg xmlns="http://www.w3.org/2000/svg" width="24" height="24" fill="none" viewBox="0 0 24 24"><g fill="currentColor" clip-path="url(#a)"><path d="M5.499 1.04c1.637-.308 2.613 1.23 3.26 2.25l.008.013.09.15c.648 1.012 1.466 2.294 1.107 3.756-.19.79-.758 1.251-1.216 1.612l-.12.1-.12.1c-.107.1-.232.19-.365.288l-.043.032c-.28.21-.598.452-.658.652-.196.692.365 1.59.59 1.949l.008.013A13.8 13.8 0 0 0 11 15.309l.01.009c.44.362 1.17.962 1.715.853.368-.07.627-.34 1.026-.78.468-.511 1.056-1.153 2.043-1.303 1.532-.239 2.575.686 3.34 1.366l.02.016.527.46c.798.661 1.884 1.573 1.794 2.905-.069.883-.677 1.412-1.125 1.801l-.011.011-.09.08c-.14.12-.279.25-.408.381l-.08.073c-.264.249-.539.507-.847.707-1.116.731-2.442 1.102-3.947 1.102l.01.01h-.3c-1.644-.05-2.93-.63-3.976-1.181-2.342-1.252-4.106-3.075-5.392-4.517-1.813-2.042-3.09-4.115-3.788-6.148C.515 8.19.983 5.076 2.767 3.033c.24-.27.549-.53.858-.791l.448-.381.02-.018c.346-.307.77-.685 1.406-.802m7.325.199.01.01C18.445 1.26 23 5.828 23 11.466c0 .45-.369.82-.817.82a.823.823 0 0 1-.818-.82c-.01-4.737-3.827-8.582-8.54-8.583a.823.823 0 0 1-.818-.82c0-.451.369-.821.817-.821"/><path d="M12.834 4.515c3.807 0 6.907 3.104 6.907 6.94 0 .45-.369.82-.817.82a.823.823 0 0 1-.818-.82c0-2.924-2.362-5.308-5.282-5.308l.01.01a.823.823 0 0 1-.817-.821c0-.45.369-.82.817-.82"/></g><defs><clipPath id="a"><path fill="currentColor" d="M0 0h24v24H0z"/></clipPath></defs></svg>