<svg xmlns="http://www.w3.org/2000/svg" width="24" height="24" fill="none" viewBox="0 0 24 24"><g fill="currentColor" clip-path="url(#a)"><path d="M5.499 1.04c1.644-.31 2.62 1.242 3.268 2.263l.09.15c.648 1.012 1.466 2.294 1.107 3.756-.19.79-.758 1.251-1.216 1.612-.08.07-.16.13-.24.2-.119.11-.259.21-.408.32-.28.21-.598.451-.658.652-.199.7.379 1.611.598 1.962A13.8 13.8 0 0 0 11 15.309c.438.36 1.176.972 1.725.861.368-.07.627-.34 1.026-.78.468-.51 1.056-1.152 2.043-1.303 1.545-.24 2.592.702 3.36 1.383l.527.46c.798.661 1.884 1.573 1.794 2.904-.07.892-.688 1.422-1.136 1.813l-.09.08c-.14.12-.279.25-.408.38-.29.271-.588.561-.927.781-1.116.731-2.442 1.102-3.947 1.102l.01.01h-.3c-1.644-.05-2.93-.63-3.976-1.181-2.342-1.252-4.106-3.075-5.392-4.517-1.813-2.043-3.09-4.115-3.788-6.148C.515 8.19.983 5.075 2.767 3.033c.24-.27.549-.53.858-.791l.448-.381c.349-.31.778-.7 1.426-.82m10.349.062a.674.674 0 0 1 .9.168c.2.28.119.66-.179.848l-1.894 1.195 3.796-.001.234.004C21.11 3.403 23 4.732 23 7.369c0 1.777-1.5 3.721-4.8 3.721H17c-.358 0-.649-.274-.649-.611s.29-.61.649-.61h1.2c3.3 0 3.502-1.722 3.502-2.5 0-2.223-1.44-2.834-3.244-2.834H14.61l2 1.485c.28.209.33.593.108.858a.677.677 0 0 1-.913.102l-3.559-2.644A.6.6 0 0 1 12 3.833a.6.6 0 0 1 .287-.485z"/></g><defs><clipPath id="a"><path fill="currentColor" d="M0 0h24v24H0z"/></clipPath></defs></svg>