<svg xmlns="http://www.w3.org/2000/svg" width="24" height="24" fill="none" viewBox="0 0 24 24"><g clip-path="url(#a)"><path fill="currentColor" fill-rule="evenodd" d="M8.728 3.604a9.17 9.17 0 0 1 10.103 2.45.918.918 0 1 1-1.366 1.223 7.334 7.334 0 0 0-12.503 2.828h.85a.688.688 0 0 1 .486 1.173l-2.063 2.063a.69.69 0 0 1-.971 0L1.2 11.278a.688.688 0 0 1 .486-1.173h1.381a9.17 9.17 0 0 1 5.66-6.5M12 9.417a2.75 2.75 0 1 0 0 5.5 2.75 2.75 0 0 0 0-5.5m10.313 4.813h-1.38a9.168 9.168 0 0 1-15.764 4.05.917.917 0 0 1 1.366-1.222 7.334 7.334 0 0 0 12.504-2.829h-.851a.687.687 0 0 1-.486-1.173l2.063-2.063a.687.687 0 0 1 .971 0l2.063 2.063a.687.687 0 0 1-.486 1.173" clip-rule="evenodd"/></g><defs><clipPath id="a"><path fill="currentColor" d="M0 0h24v24H0z"/></clipPath></defs></svg>