<svg width="24" height="24" viewBox="0 0 24 24" fill="none" xmlns="http://www.w3.org/2000/svg">
<g clip-path="url(#clip0_5734_994)">
<path fill-rule="evenodd" clip-rule="evenodd" d="M8.72824 3.60422C10.4623 2.94169 12.3567 2.82123 14.1607 3.25878C15.9648 3.69632 17.5935 4.67126 18.8314 6.05461C18.9155 6.14363 18.981 6.24861 19.0239 6.36336C19.0668 6.47811 19.0862 6.60029 19.0811 6.72268C19.076 6.84508 19.0464 6.9652 18.994 7.07597C18.9417 7.18673 18.8677 7.28587 18.7764 7.36755C18.6851 7.44923 18.5784 7.51178 18.4625 7.55151C18.3466 7.59124 18.2239 7.60734 18.1017 7.59886C17.9795 7.59038 17.8603 7.55749 17.751 7.50214C17.6417 7.44679 17.5446 7.37009 17.4655 7.27659C16.5937 6.30229 15.4773 5.57876 14.2319 5.18091C12.9865 4.78306 11.6574 4.72537 10.3823 5.0138C9.10708 5.30223 7.93219 5.9263 6.97926 6.82139C6.02632 7.71647 5.32999 8.85002 4.96236 10.1047H5.81216C5.94805 10.1048 6.08086 10.1452 6.19382 10.2207C6.30677 10.2963 6.3948 10.4036 6.44679 10.5292C6.49878 10.6547 6.51239 10.7929 6.48592 10.9262C6.45944 11.0595 6.39405 11.1819 6.29802 11.2781L4.23541 13.3407C4.10649 13.4694 3.93175 13.5417 3.74955 13.5417C3.56735 13.5417 3.3926 13.4694 3.26369 13.3407L1.20107 11.2781C1.10504 11.1819 1.03966 11.0595 1.01318 10.9262C0.986699 10.7929 1.00031 10.6547 1.0523 10.5292C1.10429 10.4036 1.19232 10.2963 1.30527 10.2207C1.41823 10.1452 1.55104 10.1048 1.68693 10.1047H3.06843C3.40655 8.64029 4.09952 7.2815 5.08632 6.14795C6.07312 5.0144 7.32441 4.14085 8.72824 3.60422ZM12 9.41712C11.2706 9.41712 10.5711 9.70687 10.0553 10.2226C9.5396 10.7384 9.24985 11.4379 9.24985 12.1673C9.24985 12.8967 9.5396 13.5962 10.0553 14.1119C10.5711 14.6277 11.2706 14.9174 12 14.9174C12.7294 14.9174 13.4289 14.6277 13.9447 14.1119C14.4604 13.5962 14.7502 12.8967 14.7502 12.1673C14.7502 11.4379 14.4604 10.7384 13.9447 10.2226C13.4289 9.70687 12.7294 9.41712 12 9.41712ZM22.3131 14.2299H20.9325C20.5546 15.8663 19.7345 17.3674 18.5616 18.5695C17.3887 19.7715 15.9081 20.6282 14.2815 21.0461C12.6549 21.464 10.9447 21.4271 9.33768 20.9393C7.73063 20.4514 6.28848 19.5315 5.16862 18.2799C5.01436 18.0977 4.9373 17.8624 4.95383 17.6242C4.97036 17.386 5.07917 17.1637 5.25713 17.0045C5.43508 16.8453 5.66813 16.7618 5.90669 16.7718C6.14525 16.7818 6.37051 16.8844 6.53453 17.058C7.40635 18.0325 8.52286 18.7562 9.76842 19.1541C11.014 19.5521 12.3433 19.6098 13.6186 19.3212C14.894 19.0327 16.069 18.4084 17.0219 17.5131C17.9749 16.6177 18.6711 15.4839 19.0386 14.229H18.1878C18.0519 14.2289 17.9191 14.1885 17.8062 14.1129C17.6932 14.0374 17.6052 13.93 17.5532 13.8045C17.5012 13.6789 17.4876 13.5408 17.5141 13.4075C17.5406 13.2742 17.6059 13.1517 17.702 13.0556L19.7646 10.993C19.8935 10.8642 20.0683 10.7919 20.2505 10.7919C20.4327 10.7919 20.6074 10.8642 20.7363 10.993L22.7989 13.0556C22.895 13.1517 22.9603 13.2742 22.9868 13.4075C23.0133 13.5408 22.9997 13.6789 22.9477 13.8045C22.8957 13.93 22.8077 14.0374 22.6947 14.1129C22.5818 14.1885 22.449 14.2289 22.3131 14.229V14.2299Z" fill="#3C3B44"/>
</g>
<defs>
<clipPath id="clip0_5734_994">
<rect width="24" height="24" fill="white"/>
</clipPath>
</defs>
</svg>
