<svg xmlns="http://www.w3.org/2000/svg" width="24" height="24" fill="none" viewBox="0 0 24 24"><g clip-path="url(#a)"><path fill="currentColor" d="m22.83 10.013-6.093-4.898a.54.54 0 0 0-.55-.07c-.18.08-.3.25-.3.44v3.438H9.014C4.602 8.923 1 12.323 1 16.491v1.1C1 18.37 1.67 19 2.49 19c.821 0 1.491-.63 1.491-1.41v-.99c0-2.708 2.261-4.918 5.033-4.918h6.873v3.6c0 .19.12.36.3.44.07.03.14.04.21.04.12 0 .24-.04.33-.12l6.093-4.9a.5.5 0 0 0 .18-.37.5.5 0 0 0-.18-.369z"/></g><defs><clipPath id="a"><path fill="currentColor" d="M0 0h24v24H0z"/></clipPath></defs></svg>