<svg width="24" height="24" viewBox="0 0 24 24" fill="none" xmlns="http://www.w3.org/2000/svg">
<g clip-path="url(#clip0_92_752)">
<path d="M15.1827 3C16.3456 3.05805 17.2207 3.99301 17.171 5.08203V10.8359H14.2276C14.4462 10.489 14.5654 10.1038 14.5655 9.68945C14.5655 9.11116 14.3277 8.5707 13.9102 8.15625C13.4927 7.74183 12.9256 7.52053 12.3292 7.52051C11.7327 7.52052 11.1756 7.75146 10.7481 8.15625L7.32819 11.4727C7.11969 11.6749 6.95114 11.9158 6.84186 12.1758C6.73251 12.4457 6.67291 12.7255 6.67291 13.0146C6.67294 13.3037 6.73254 13.5836 6.84186 13.8438C6.95116 14.1133 7.11968 14.3447 7.32819 14.5469L10.7383 17.8525C11.1559 18.267 11.7229 18.4892 12.3194 18.4893C12.9158 18.4892 13.4721 18.2573 13.8995 17.8525C14.3269 17.4477 14.5557 16.8986 14.5557 16.3203C14.5557 15.906 14.4364 15.5111 14.2178 15.1738H17.1602V20.957C17.2097 22.0075 16.3352 22.9422 15.212 23H3.98834C2.82527 22.9421 1.95036 22.0071 2.00006 20.918V5.04297C1.95061 3.99265 2.82527 3.05801 3.94831 3H15.1827Z" fill="#1D1B20"/>
<path d="M11.7921 9.17871C12.0803 8.8992 12.5575 8.89922 12.8458 9.17871C13.1338 9.45825 13.134 9.92076 12.8458 10.2002L10.6983 12.2822H23.254C23.6616 12.2822 24.0001 12.6097 24.0001 13.0049C24 13.4 23.6615 13.7275 23.254 13.7275H10.6983L12.8458 15.8096C13.134 16.089 13.1339 16.5515 12.8458 16.8311C12.6967 16.9756 12.5073 17.043 12.3184 17.043C12.1297 17.0429 11.9411 16.9755 11.7921 16.8311L8.37213 13.5156C8.30256 13.4482 8.25271 13.3709 8.21295 13.2842C8.17326 13.1975 8.15339 13.1012 8.15338 13.0049C8.15338 12.9086 8.17327 12.8123 8.21295 12.7256C8.24277 12.6389 8.30258 12.5616 8.37213 12.4941L11.7921 9.17871Z" fill="#1D1B20"/>
</g>
<defs>
<clipPath id="clip0_92_752">
<rect width="24" height="24" fill="white"/>
</clipPath>
</defs>
</svg>
