<svg xmlns="http://www.w3.org/2000/svg" width="24" height="24" fill="none" viewBox="0 0 24 24"><g fill="currentColor" clip-path="url(#a)"><path d="M14.945 13.415a1.6 1.6 0 0 1 1.164-.142h-.01C19.495 14.14 22 17.15 22 20.724 22 21.983 20.951 23 19.662 23H4.338C3.048 23 2 21.983 2 20.724c0-3.584 2.516-6.585 5.912-7.45.388-.101.807-.05 1.163.14.87.464 1.867.726 2.936.726a6.2 6.2 0 0 0 2.934-.725"/><path fill-rule="evenodd" d="M12.022 1c3.134 0 5.67 2.437 5.67 5.447s-2.536 5.447-5.67 5.447S6.35 9.458 6.35 6.447C6.35 3.437 8.887 1 12.02 1m-.273 4.4c-1.363-.362-3.26-.332-4.256-.181-.126.03-.125.533-.031.563a.7.7 0 0 1 .283.272c.003.01.066.198.22.836.146.652.552.774.556.775 0 0 .481.12 1.047.12s.913-.029 1.28-.21c.377-.181.523-.655.523-.655.005-.01.19-.417.314-.805.021-.12.65-.12.682 0 .113.375.296.788.304.805 0 0 .157.474.524.655s.713.21 1.269.21 1.059-.12 1.059-.12c.005-.001.399-.095.555-.775.157-.684.21-.826.21-.826a.7.7 0 0 1 .282-.271h.022c.126-.04.126-.574 0-.574-.985-.151-2.893-.171-4.256.181z" clip-rule="evenodd"/></g><defs><clipPath id="a"><path fill="currentColor" d="M0 0h24v24H0z"/></clipPath></defs></svg>