<svg xmlns="http://www.w3.org/2000/svg" width="24" height="24" fill="none" viewBox="0 0 24 24"><g fill="currentColor" clip-path="url(#a)"><path fill-rule="evenodd" d="M21.07 9.217c.532 0 .96.504.96 1.113v9.443c0 1.23-.857 2.227-1.91 2.227H3.86c-1.055 0-1.91-.998-1.91-2.227V10.33c0-.62.428-1.113.96-1.113zm-11 2.51c-.669 0-1.2.62-1.2 1.386 0 .767.542 1.387 1.2 1.387h3.83c.667 0 1.2-.62 1.2-1.387 0-.766-.543-1.386-1.2-1.386z" clip-rule="evenodd"/><path d="M21.09 2C22.144 2 23 2.861 23 3.922V6.81a.96.96 0 0 1-.96.966H1.96A.96.96 0 0 1 1 6.811V3.92C1 2.862 1.856 2 2.91 2z"/></g><defs><clipPath id="a"><path fill="currentColor" d="M0 0h24v24H0z"/></clipPath></defs></svg>