<svg width="24" height="24" viewBox="0 0 24 24" fill="none" xmlns="http://www.w3.org/2000/svg">
<g clip-path="url(#clip0_4605_384)">
<path fill-rule="evenodd" clip-rule="evenodd" d="M9.01219 23H14.9878V1H9.01219V23ZM7.44076 23V1H2.57143C2.15466 1 1.75496 1.16556 1.46026 1.46026C1.16556 1.75496 1 2.15466 1 2.57143V21.4286C1 21.8453 1.16556 22.245 1.46026 22.5397C1.75496 22.8344 2.15466 23 2.57143 23H7.44076ZM21.4286 23H16.5592V1H21.4286C21.8453 1 22.245 1.16556 22.5397 1.46026C22.8344 1.75496 23 2.15466 23 2.57143V21.4286C23 21.8453 22.8344 22.245 22.5397 22.5397C22.245 22.8344 21.8453 23 21.4286 23Z" fill="#3C3B44"/>
</g>
<defs>
<clipPath id="clip0_4605_384">
<rect width="24" height="24" fill="white"/>
</clipPath>
</defs>
</svg>
