<svg xmlns="http://www.w3.org/2000/svg" width="24" height="24" fill="none" viewBox="0 0 24 24"><g clip-path="url(#a)"><path fill="currentColor" d="M21 3.96c.02-1.62-1.34-2.94-3.05-2.96s-3.104 1.27-3.125 2.89c-.021 1.28.844 2.42 2.122 2.82v.18c0 2.73-2.333 4.94-5.215 4.94H8.06V6.74c1.625-.51 2.502-2.16 1.974-3.7C9.494 1.5 7.753.67 6.127 1.17c-1.625.51-2.501 2.16-1.974 3.7a3.02 3.02 0 0 0 1.974 1.87v10.54c-1.625.51-2.501 2.16-1.974 3.7.539 1.54 2.28 2.37 3.906 1.87 1.625-.51 2.502-2.16 1.974-3.7-.306-.88-1.035-1.58-1.974-1.87v-3.66h3.673c3.948 0 7.146-3.03 7.146-6.77v-.11C20.145 6.34 21 5.22 21 3.96"/></g><defs><clipPath id="a"><path fill="currentColor" d="M0 0h24v24H0z"/></clipPath></defs></svg>