<svg width="24" height="24" viewBox="0 0 24 24" fill="none" xmlns="http://www.w3.org/2000/svg">
<g clip-path="url(#clip0_4589_411)">
<path d="M12 1C5.93 1 1 5.92 1 12C1 18.08 5.92 23 12 23C18.08 23 23 18.08 23 12C23 5.92 18.07 1 12 1ZM16.77 16.78C16.43 17.15 15.85 17.18 15.48 16.84L10.9 12.68C10.72 12.5 10.63 12.25 10.64 12V6.96C10.64 6.45 11.05 6.04 11.56 6.04C12.07 6.04 12.48 6.45 12.48 6.96V11.6L16.72 15.5C17.09 15.84 17.12 16.42 16.78 16.79L16.77 16.78Z" fill="#3C3B44"/>
</g>
<defs>
<clipPath id="clip0_4589_411">
<rect width="24" height="24" fill="white"/>
</clipPath>
</defs>
</svg>
