<svg xmlns="http://www.w3.org/2000/svg" width="24" height="24" fill="none" viewBox="0 0 24 24"><g clip-path="url(#a)"><path fill="currentColor" fill-rule="evenodd" d="M16.788 8.081h5.52C21.01 4.531 18.03 1.823 14.359 1c1.225 1.512 2.037 4.153 2.43 7.081M8.632 15.92c.589 4.162 2.037 6.966 3.373 6.966s2.784-2.804 3.372-6.966zM23 11.995c0 .862-.103 1.685-.28 2.488h-5.783c.065-.832.103-1.655.103-2.488 0-.832-.038-1.665-.103-2.488h5.783c.177.804.28 1.627.28 2.488m-7.361.01q0-1.295-.112-2.488H8.464a30 30 0 0 0-.112 2.488c0 .87.037 1.693.112 2.488h7.063c.065-.795.112-1.617.112-2.488M1.7 15.919h5.511c.393 2.928 1.205 5.57 2.43 7.081-3.672-.823-6.652-3.531-7.941-7.081M15.368 8.08c-.589-4.162-2.037-6.966-3.363-6.966S9.22 3.919 8.632 8.08zM14.358 23c1.225-1.512 2.047-4.153 2.43-7.081h5.511c-1.289 3.55-4.269 6.258-7.94 7.081M1.28 9.517c-.177.804-.28 1.627-.28 2.488s.103 1.684.28 2.488h5.783a32 32 0 0 1-.103-2.488c0-.833.037-1.656.103-2.488zM9.65 1C8.428 2.512 7.606 5.153 7.223 8.081H1.7C2.99 4.531 5.97 1.823 9.65 1" clip-rule="evenodd"/></g><defs><clipPath id="a"><path fill="currentColor" d="M0 0h24v24H0z"/></clipPath></defs></svg>