<svg width="24" height="24" viewBox="0 0 24 24" fill="none" xmlns="http://www.w3.org/2000/svg">
<g clip-path="url(#clip0_4191_767)">
<path fill-rule="evenodd" clip-rule="evenodd" d="M3.13097 1C2.5658 1 2.02378 1.22451 1.62415 1.62415C1.22451 2.02378 1 2.5658 1 3.13097V9.05804C1.0002 9.99991 1.37452 10.9031 2.04062 11.569L13.0553 22.5837C13.237 22.7655 13.4647 22.8946 13.714 22.9572C13.9635 23.0199 14.2252 23.0136 14.4714 22.9391C14.7176 22.8647 14.9389 22.7248 15.1118 22.5344C15.2847 22.3439 15.4027 22.1101 15.4531 21.858L16.5204 16.5204L21.858 15.4531C22.1102 15.4027 22.3439 15.2847 22.5344 15.1118C22.7248 14.9389 22.8647 14.7176 22.9391 14.4714C23.0136 14.2252 23.0199 13.9635 22.9572 13.714C22.8946 13.4646 22.7654 13.2368 22.5835 13.055L11.569 2.04062C10.9031 1.37452 9.99991 1.0002 9.05804 1H3.13097ZM5.39435 6.81514C5.39435 7.0017 5.43109 7.18643 5.50249 7.3588C5.57388 7.53116 5.67853 7.68777 5.81044 7.81969C5.94236 7.9516 6.09897 8.05625 6.27134 8.12764C6.4437 8.19904 6.62843 8.23578 6.81499 8.23578C7.00155 8.23578 7.18629 8.19904 7.35865 8.12764C7.53101 8.05625 7.68762 7.9516 7.81954 7.81969C7.95146 7.68777 8.0561 7.53116 8.1275 7.3588C8.19889 7.18643 8.23564 7.0017 8.23564 6.81514C8.23564 6.62858 8.19889 6.44384 8.1275 6.27148C8.0561 6.09912 7.95146 5.94251 7.81954 5.81059C7.68762 5.67867 7.53101 5.57403 7.35865 5.50264C7.18629 5.43124 7.00155 5.39449 6.81499 5.39449C6.62843 5.39449 6.4437 5.43124 6.27134 5.50264C6.09897 5.57403 5.94236 5.67867 5.81044 5.81059C5.67853 5.94251 5.57388 6.09912 5.50249 6.27148C5.43109 6.44384 5.39435 6.62858 5.39435 6.81514Z" fill="#3C3B44"/>
</g>
<defs>
<clipPath id="clip0_4191_767">
<rect width="24" height="24" fill="white"/>
</clipPath>
</defs>
</svg>
