<svg xmlns="http://www.w3.org/2000/svg" fill="currentColor" viewBox="0 0 24 24"><path fill="currentColor" fill-rule="evenodd" d="M14.519 1a1.6 1.6 0 0 0-1.606 1.605v4.123a1.6 1.6 0 0 0 1.606 1.605h6.875A1.6 1.6 0 0 0 23 6.728V2.605A1.6 1.6 0 0 0 21.394 1zm0 9.17a1.6 1.6 0 0 0-1.606 1.605v9.62A1.6 1.6 0 0 0 14.519 23h6.875A1.6 1.6 0 0 0 23 21.395v-9.62a1.6 1.6 0 0 0-1.606-1.606zM1 2.604A1.6 1.6 0 0 1 2.606 1h6.875a1.6 1.6 0 0 1 1.606 1.605v9.62a1.6 1.6 0 0 1-1.606 1.606H2.606A1.6 1.6 0 0 1 1 12.225zm1.606 13.062A1.6 1.6 0 0 0 1 17.272v4.123A1.6 1.6 0 0 0 2.606 23h6.875a1.6 1.6 0 0 0 1.606-1.605v-4.123a1.6 1.6 0 0 0-1.606-1.605z" clip-rule="evenodd"/></svg>