<svg xmlns="http://www.w3.org/2000/svg" width="24" height="24" fill="none" viewBox="0 0 24 24"><g clip-path="url(#a)"><path fill="currentColor" d="M20.92 4H3.08C1.553 4 1 5.208 1 6.02v11.96C1 19.455 2.246 20 3.08 20h17.84c1.527 0 2.08-1.208 2.08-2.02V6.02C23 4.535 21.754 4 20.92 4M8.86 17.535H4.054a.694.694 0 0 1-.703-.693c0-.387.311-.684.703-.684H8.86c.392 0 .704.307.704.684a.7.7 0 0 1-.704.693m12.502-6.614H2.407V8.158h18.955c.08 0 .16.01.231.02v2.723c-.07.01-.15.02-.231.02"/></g><defs><clipPath id="a"><path fill="currentColor" d="M0 0h24v24H0z"/></clipPath></defs></svg>