<svg xmlns="http://www.w3.org/2000/svg" width="24" height="24" fill="none" viewBox="0 0 24 24"><g fill="currentColor" clip-path="url(#a)"><path d="M3.338 16.186a.47.47 0 0 1 .43.119l3.903 3.927a.45.45 0 0 1 .128.457.48.48 0 0 1-.302.33l-5.869 1.96a.46.46 0 0 1-.493-.147.45.45 0 0 1-.11-.467l1.984-5.877a.44.44 0 0 1 .329-.302M15.501 4.09c.121 0 .237.047.324.132l3.913 3.918a.47.47 0 0 1 0 .65L9.298 19.233a.44.44 0 0 1-.494.103.4.4 0 0 1-.146-.103l-3.913-3.918a.46.46 0 0 1 0-.65L15.177 4.222a.47.47 0 0 1 .324-.132M19.766 1c.852 0 1.672.331 2.285.924a3.234 3.234 0 0 1 0 4.577l-.667.64a.467.467 0 0 1-.64 0l-3.913-3.917a.46.46 0 0 1 0-.65l.65-.65A3.3 3.3 0 0 1 19.766 1"/></g><defs><clipPath id="a"><path fill="currentColor" d="M0 0h24v24H0z"/></clipPath></defs></svg>