<svg xmlns="http://www.w3.org/2000/svg" width="24" height="24" fill="none" viewBox="0 0 24 24"><g clip-path="url(#a)"><path fill="currentColor" fill-rule="evenodd" d="M12.568 1c-.501 0-.972.194-1.32.553L8.823 3.978a3.97 3.97 0 0 0-4.85-2.845A3.973 3.973 0 0 0 1.13 5.984 3.97 3.97 0 0 0 3.974 8.83l-2.425 2.425a1.885 1.885 0 0 0 0 2.651l1.974 1.976a.47.47 0 0 0 .768-.154 3.05 3.05 0 0 1 3.98-1.627 3.05 3.05 0 0 1 1.627 3.981A3.05 3.05 0 0 1 8.27 19.71a.47.47 0 0 0-.246.614c.02.05.062.102.103.153l1.974 1.976a1.883 1.883 0 0 0 2.65 0l2.425-2.426a3.974 3.974 0 0 0 7.745-1.78 3.97 3.97 0 0 0-2.895-3.072l2.424-2.425a1.885 1.885 0 0 0 0-2.651l-1.974-1.975a.47.47 0 0 0-.768.153 3.05 3.05 0 0 1-3.98 1.627c-1.544-.644-2.27-2.435-1.626-3.981.307-.737.89-1.31 1.627-1.627a.47.47 0 0 0 .245-.614c-.02-.052-.061-.103-.102-.154l-1.975-1.975A1.88 1.88 0 0 0 12.578 1z" clip-rule="evenodd"/></g><defs><clipPath id="a"><path fill="currentColor" d="M0 0h24v24H0z"/></clipPath></defs></svg>