<svg xmlns="http://www.w3.org/2000/svg" width="24" height="24" fill="none" viewBox="0 0 24 24"><g clip-path="url(#a)"><path fill="currentColor" d="M22.904 8.92a1.4 1.4 0 0 0-.517-.674 1.44 1.44 0 0 0-.814-.26h-5.75a.48.48 0 0 1-.443-.309l-2.058-5.79a1.4 1.4 0 0 0-.528-.645 1.42 1.42 0 0 0-1.614.017 1.4 1.4 0 0 0-.51.675L8.601 7.696a.47.47 0 0 1-.444.308H2.41a1.4 1.4 0 0 0-.815.259 1.4 1.4 0 0 0-.516.675 1.405 1.405 0 0 0 .425 1.541l4.89 4.016a.47.47 0 0 1 .15.504l-2.057 6.099a1.39 1.39 0 0 0 .505 1.58 1.43 1.43 0 0 0 1.676-.002l5.04-3.66a.465.465 0 0 1 .558 0l5.05 3.66a1.425 1.425 0 0 0 1.73.062 1.39 1.39 0 0 0 .498-1.64l-2.058-6.099a.46.46 0 0 1 .151-.504l4.9-4.025a1.41 1.41 0 0 0 .368-1.55"/></g><defs><clipPath id="a"><path fill="currentColor" d="M0 0h24v24H0z"/></clipPath></defs></svg>