<svg xmlns="http://www.w3.org/2000/svg" width="24" height="24" fill="none" viewBox="0 0 24 24"><g clip-path="url(#a)"><path fill="currentColor" d="M12.01 23c.629 0 1.137-.51 1.137-1.14v-.38a9.44 9.44 0 0 1 5.253-8.472.19.19 0 0 1 .18 0c.06.02.109.06.139.12l.23.56c.119.3.398.51.717.56.329.04.648-.09.847-.36l2.302-3.07c.2-.26.24-.61.11-.92a.91.91 0 0 0-.708-.56L18.4 8.816a.91.91 0 0 0-.967 1.25l.21.5c.05.11 0 .24-.12.29-1.525.74-2.88 1.8-3.967 3.111-.06.07-.16.1-.25.06a.24.24 0 0 1-.159-.21v-7.12c.02-.11.11-.19.22-.19h.737c.339 0 .658-.18.817-.48a.97.97 0 0 0 0-.96l-2.113-3.632a.99.99 0 0 0-1.644 0L9.05 5.026a.97.97 0 0 0 0 .96c.16.3.479.48.818.48h.737c.13 0 .23.1.23.23v7.142c0 .1-.07.18-.16.21-.09.04-.19.01-.25-.06a11.7 11.7 0 0 0-3.936-3.12.234.234 0 0 1-.12-.29l.21-.5a.93.93 0 0 0-.12-.921.92.92 0 0 0-.887-.34l-3.778.53a.93.93 0 0 0-.787 1.03.9.9 0 0 0 .18.44l2.302 3.031c.309.4.877.48 1.275.18.13-.1.23-.23.29-.38l.229-.56c.03-.06.08-.1.14-.12a.19.19 0 0 1 .179 0 9.44 9.44 0 0 1 5.213 8.472v.38c-.02.63.478 1.16 1.106 1.18h.09"/></g><defs><clipPath id="a"><path fill="currentColor" d="M0 0h24v24H0z"/></clipPath></defs></svg>