<svg xmlns="http://www.w3.org/2000/svg" width="24" height="24" fill="none" viewBox="0 0 24 24"><g clip-path="url(#a)"><path fill="currentColor" fill-rule="evenodd" d="M22.741 19.358v-5.012a.8.8 0 0 0 0-.243V7.158q.01-.06.01-.121V4.464a1 1 0 0 0-.012-.133c-.039-1.214-.608-1.935-1.26-2.313a2.7 2.7 0 0 0-1.244-.357H3.776c-.6 0-1.095.177-1.484.477a2.5 2.5 0 0 0-.757 1.002 3.6 3.6 0 0 0-.283 1.28v.028l-.001.01v14.9c0 1.294.586 2.055 1.262 2.445a2.7 2.7 0 0 0 1.245.358h16.458c.6 0 1.095-.177 1.484-.477.378-.292.612-.666.758-1.002a3.6 3.6 0 0 0 .283-1.28v-.045m-1.957 1.138c-.11.085-.28.165-.568.165h-4.138v-5.687h5.163v4.385l-.002.04a2.1 2.1 0 0 1-.158.687 1 1 0 0 1-.297.41m-17.52.009c-.212-.122-.513-.388-.513-1.147v-4.384h5.164v5.687h-4.13l-.023-.002a1.2 1.2 0 0 1-.498-.155m11.314.156v-5.687H9.415v5.687zm6.663-7.187h-5.163V7.787h5.163zm-6.663 0V7.787H9.415v5.687zM7.915 7.787v5.687H2.75V7.787z" clip-rule="evenodd"/></g><defs><clipPath id="a"><path fill="currentColor" d="M0 0h24v24H0z"/></clipPath></defs></svg>