<svg xmlns="http://www.w3.org/2000/svg" width="24" height="24" fill="none" viewBox="0 0 24 24"><g fill="currentColor" clip-path="url(#a)"><path d="M14.236 1c.132 0 .262.038.374.108a.69.69 0 0 1 .289.655l-.15 2.065a9.85 9.85 0 0 1 6.712 7.581A9.834 9.834 0 0 1 11.805 23a9.82 9.82 0 0 1-7.095-3.028.94.94 0 0 1-.181-1.028.94.94 0 0 1 .879-.561.94.94 0 0 1 .658.289 7.945 7.945 0 1 0 8.953-12.706L14.6 5.8l-.15 1.869a.71.71 0 0 1-.429.599.9.9 0 0 1-.272.046.7.7 0 0 1-.458-.169L9.683 4.95a.702.702 0 0 1 .066-1.112l4.113-2.73A.7.7 0 0 1 14.236 1"/><path d="M11.955 9.082a.693.693 0 0 1 .7.682v4.674a.7.7 0 0 1-.205.496l-2.804 2.803a.72.72 0 0 1-.496.206.74.74 0 0 1-.495-.206.7.7 0 0 1 0-.99l2.598-2.58V9.782a.7.7 0 0 1 .702-.7m-9.623 2.832a.937.937 0 0 1 1.555.757 7.9 7.9 0 0 0 .552 3.477.936.936 0 0 1-1.395 1.13.94.94 0 0 1-.343-.428 10.1 10.1 0 0 1-.683-4.291.94.94 0 0 1 .314-.645M6.89 4.755a.936.936 0 0 1 .644 1.737 7.8 7.8 0 0 0-2.468 2.496.94.94 0 0 1-.795.449.935.935 0 0 1-.795-1.421 9.45 9.45 0 0 1 3.066-3.104.9.9 0 0 1 .347-.157"/></g><defs><clipPath id="a"><path fill="currentColor" d="M0 0h24v24H0z"/></clipPath></defs></svg>