<svg xmlns="http://www.w3.org/2000/svg" width="24" height="24" fill="none" viewBox="0 0 24 24"><g clip-path="url(#a)"><path fill="currentColor" d="M19.79 20.589c.665 0 1.21.542 1.21 1.205S20.455 23 19.79 23H4.209A1.21 1.21 0 0 1 3 21.794a1.21 1.21 0 0 1 1.209-1.205zm-.685-1.336h-.01l.004-.001zM18.54 1.14a1.213 1.213 0 0 1 1.633.493 1.205 1.205 0 0 1-.493 1.628L6.759 10.13l12.91 6.862c.584.311.806 1.044.494 1.627a1.205 1.205 0 0 1-1.623.492L4.592 11.698c-.1-.06-.202-.13-.282-.21a1.92 1.92 0 0 1 0-2.723c.08-.08.181-.15.282-.21z"/></g><defs><clipPath id="a"><path fill="currentColor" d="M0 0h24v24H0z"/></clipPath></defs></svg>