<svg xmlns="http://www.w3.org/2000/svg" width="24" height="24" fill="none" viewBox="0 0 24 24"><g clip-path="url(#a)"><path fill="currentColor" fill-rule="evenodd" d="M1.25 1.276A.97.97 0 0 1 1.92 1h8.434c.25 0 .49.092.67.276.17.183.27.428.27.684v.48h2.342c.35 0 .72.122 1 .408s.4.663.4 1.02v4.778h1.401v-.48c0-.255.09-.5.27-.683a.97.97 0 0 1 .67-.276h4.683c.25 0 .49.092.67.276.17.183.27.428.27.684v2.868c0 .235-.1.46-.24.623a.91.91 0 0 1-.69.327h-4.683a.93.93 0 0 1-.67-.276 1 1 0 0 1-.27-.684v-.48h-1.87c-.371 0-.731-.143-1.001-.408a1.44 1.44 0 0 1-.4-1.021V4.348h-1.871v.48c0 .235-.1.46-.24.623a.91.91 0 0 1-.69.327H1.94a.93.93 0 0 1-.67-.276A1 1 0 0 1 1 4.818V1.96c0-.256.08-.5.27-.684zm12.376 16.926a.93.93 0 0 0-.67.275c-.17.184-.27.43-.27.684v.48h-.941v-7.166c0-.378-.14-.745-.4-1.021a1.38 1.38 0 0 0-1-.409H8.943v-.48c0-.255-.09-.5-.27-.683a.97.97 0 0 0-.67-.276H3.32c-.25 0-.49.092-.67.276a1 1 0 0 0-.27.684v2.868c0 .256.09.5.27.684a.97.97 0 0 0 .67.276h4.682a.9.9 0 0 0 .69-.327.98.98 0 0 0 .24-.623v-.48h.941v7.167c0 .358.12.735.4 1.021s.65.409 1 .409h1.401v.48c0 .255.09.5.27.683a.97.97 0 0 0 .67.276h8.435a.9.9 0 0 0 .69-.327.98.98 0 0 0 .24-.622v-2.87c0-.254-.09-.5-.27-.683a.97.97 0 0 0-.67-.276h-8.434z" clip-rule="evenodd"/></g><defs><clipPath id="a"><path fill="currentColor" d="M0 0h24v24H0z"/></clipPath></defs></svg>