<svg width="24" height="24" viewBox="0 0 24 24" fill="none" xmlns="http://www.w3.org/2000/svg">
<g clip-path="url(#clip0_6406_1078)">
<path d="M8.2793 12.6602C8.8346 12.6602 9.28906 13.1073 9.28906 13.6533V14.9736C9.28901 15.5196 8.83457 15.9668 8.2793 15.9668C7.72411 15.9667 7.26958 15.5196 7.26953 14.9736V13.6533C7.26953 13.1073 7.72408 12.6603 8.2793 12.6602Z" fill="#3C3B44"/>
<path d="M15.71 12.6602C16.2653 12.6602 16.7197 13.1073 16.7197 13.6533V14.9736C16.7197 15.5196 16.2652 15.9668 15.71 15.9668C15.1549 15.9666 14.7012 15.5195 14.7012 14.9736V13.6533C14.7012 13.1074 15.1549 12.6604 15.71 12.6602Z" fill="#3C3B44"/>
<path fill-rule="evenodd" clip-rule="evenodd" d="M11.9951 3C12.4695 3.00009 12.8534 3.37725 12.8535 3.84375V7.61621H17.5879C19.4557 7.61621 22.9999 8.49033 23 11.8262V16.7803C23 16.82 22.9289 21 17.5879 21H6.40137C4.53349 20.9999 1 20.1161 1 16.7803V11.8262C1.00008 11.781 1.0641 7.61631 6.40137 7.61621H11.1367V3.84375C11.1368 3.37719 11.5206 3 11.9951 3ZM6.40137 9.30469C2.86894 9.30477 2.70616 11.5766 2.70605 11.8359V16.7803C2.70605 19.2614 6.24743 19.3026 6.40137 19.3125H17.5879C21.1216 19.3125 21.2731 17.0286 21.2832 16.7705V11.8262C21.2831 9.34418 17.7393 9.30469 17.5879 9.30469H6.40137Z" fill="#3C3B44"/>
</g>
<defs>
<clipPath id="clip0_6406_1078">
<rect width="24" height="24" fill="white"/>
</clipPath>
</defs>
</svg>
