<svg xmlns="http://www.w3.org/2000/svg" width="24" height="24" fill="none" viewBox="0 0 24 24"><g clip-path="url(#a)"><path fill="currentColor" fill-rule="evenodd" d="M9.178 6.37c.266-1.45 1.46-2.468 2.84-2.468h.348c.244 0 .478-.1.65-.278a.97.97 0 0 0 .27-.673.97.97 0 0 0-.27-.672.9.9 0 0 0-.65-.279h-.35C9.742 2 7.804 3.68 7.373 6.01L6.75 9.203H4.618c-.244 0-.478.1-.65.278a.97.97 0 0 0-.27.673c0 .252.097.494.27.672a.9.9 0 0 0 .65.279h1.761l-1.27 6.513-.002.01c-.267 1.451-1.46 2.468-2.839 2.468H1.92c-.244 0-.478.1-.65.278a.97.97 0 0 0-.27.673c0 .252.097.494.27.673a.9.9 0 0 0 .65.278h.348c2.275 0 4.214-1.68 4.645-4.008l1.342-6.885h1.76a.9.9 0 0 0 .65-.279.97.97 0 0 0 .27-.672.97.97 0 0 0-.27-.673.9.9 0 0 0-.65-.278h-1.39l.55-2.824zm4.154 5.448c.167-.18.26-.42.258-.67a.97.97 0 0 0-.27-.664.9.9 0 0 0-.642-.278.9.9 0 0 0-.647.267c-1.19 1.231-1.836 3.316-1.836 5.624s.645 4.393 1.836 5.625a.9.9 0 0 0 .65.278c.245 0 .479-.1.651-.279a.97.97 0 0 0 .27-.673.97.97 0 0 0-.27-.672c-.725-.749-1.298-2.264-1.298-4.279s.573-3.53 1.297-4.28m6.531-1.345a.9.9 0 0 1 .65-.279c.244 0 .478.1.65.278C22.354 11.705 23 13.79 23 16.098s-.646 4.393-1.837 5.625a.9.9 0 0 1-.65.278.9.9 0 0 1-.65-.279.97.97 0 0 1-.27-.673c0-.252.098-.494.27-.672.724-.749 1.297-2.264 1.297-4.279s-.573-3.53-1.297-4.28a.97.97 0 0 1-.269-.672c0-.252.097-.494.27-.672m-4.159 2.394a.92.92 0 0 0-.575-.405.9.9 0 0 0-.684.127.95.95 0 0 0-.403.587.98.98 0 0 0 .11.71l1.356 2.211-1.357 2.21a.97.97 0 0 0-.121.717.97.97 0 0 0 .405.596.9.9 0 0 0 .693.125.92.92 0 0 0 .576-.419l.892-1.455.894 1.455a.92.92 0 0 0 .575.406.9.9 0 0 0 .685-.128.95.95 0 0 0 .403-.587.98.98 0 0 0-.11-.71l-1.357-2.21 1.357-2.21a.98.98 0 0 0 .11-.711.95.95 0 0 0-.403-.587.9.9 0 0 0-.685-.127.92.92 0 0 0-.575.405l-.893 1.455z" clip-rule="evenodd"/></g><defs><clipPath id="a"><path fill="currentColor" d="M0 0h24v24H0z"/></clipPath></defs></svg>