<svg xmlns="http://www.w3.org/2000/svg" width="24" height="24" fill="none" viewBox="0 0 24 24"><g clip-path="url(#a)"><path fill="currentColor" fill-rule="evenodd" d="M12.642 1c.26 0 .508.1.692.277a.93.93 0 0 1 .287.669v7.268h1.852c.26 0 .509.1.692.277a.93.93 0 0 1 .287.669.93.93 0 0 1-.287.668 1 1 0 0 1-.692.277H9.806c-.26 0-.509-.1-.692-.277a.93.93 0 0 1-.287-.668.93.93 0 0 1 .287-.669 1 1 0 0 1 .692-.277h1.857v-4.48a3.2 3.2 0 0 1-1.147.211h-.708c-.26 0-.509-.1-.692-.277a.93.93 0 0 1-.287-.669.93.93 0 0 1 .287-.668 1 1 0 0 1 .692-.277h.708c.633 0 1.147-.497 1.147-1.108a.93.93 0 0 1 .287-.669A1 1 0 0 1 12.642 1m5.015 11.895h1.063c.549 0 1.087.149 1.553.43s.84.684 1.08 1.162a2.74 2.74 0 0 1-.334 2.984c.31.28.557.619.726.995.169.377.255.782.255 1.192v.343c0 .795-.327 1.558-.909 2.12a3.16 3.16 0 0 1-2.194.879H17.48a3.2 3.2 0 0 1-1.793-.55A3 3 0 0 1 14.552 21a.92.92 0 0 1 .04-.723.97.97 0 0 1 .557-.483 1 1 0 0 1 .748.038.96.96 0 0 1 .501.538c.157.431.583.738 1.082.738h1.417a1.18 1.18 0 0 0 .81-.324q.161-.156.249-.36c.057-.134.087-.278.087-.423v-.343c0-.611-.513-1.108-1.146-1.108h-.709c-.26 0-.508-.1-.692-.277a.93.93 0 0 1-.287-.668.93.93 0 0 1 .287-.67 1 1 0 0 1 .692-.276h.532a1 1 0 0 0 .685-.274.92.92 0 0 0 .284-.663.92.92 0 0 0-.284-.662 1 1 0 0 0-.686-.274h-1.062a1 1 0 0 0-.585.189.94.94 0 0 0-.349.492.95.95 0 0 1-.467.556 1 1 0 0 1-.736.08.97.97 0 0 1-.584-.442.92.92 0 0 1-.096-.71 2.83 2.83 0 0 1 1.052-1.484 3 3 0 0 1 1.765-.572m-12.554 0a3.2 3.2 0 0 0-1.792.55 3.02 3.02 0 0 0-1.135 1.448.92.92 0 0 0 .04.723 1 1 0 0 0 .228.296 1 1 0 0 0 .707.241 1 1 0 0 0 .676-.312.9.9 0 0 0 .195-.317c.08-.216.226-.403.42-.535s.424-.203.661-.203h1.472c.251 0 .494.083.69.235a1.03 1.03 0 0 1 .281 1.303 1.08 1.08 0 0 1-.533.482L3.859 18.14a3.1 3.1 0 0 0-1.353 1.106A2.93 2.93 0 0 0 2 20.888v1.166c0 .251.103.492.287.669a1 1 0 0 0 .692.277h5.666c.26 0 .509-.1.692-.277a.93.93 0 0 0 .287-.669.93.93 0 0 0-.287-.668 1 1 0 0 0-.692-.277H3.957v-.221c0-.441.27-.84.686-1.016l3.155-1.333a3 3 0 0 0 1.49-1.349 2.86 2.86 0 0 0 .274-1.954A2.93 2.93 0 0 0 8.5 13.552a3.1 3.1 0 0 0-1.924-.658z" clip-rule="evenodd"/></g><defs><clipPath id="a"><path fill="currentColor" d="M0 0h24v24H0z"/></clipPath></defs></svg>