<svg width="24" height="24" viewBox="0 0 24 24" fill="none" xmlns="http://www.w3.org/2000/svg">
<g clip-path="url(#clip0_4191_807)">
<path d="M20.5521 10.5521H13.4479V3.44788C13.4479 2.64672 12.8012 2 12 2C11.1988 2 10.5521 2.64672 10.5521 3.44788V10.5521H3.44788C2.64672 10.5521 2 11.1988 2 12C2 12.8012 2.64672 13.4479 3.44788 13.4479H10.5521V20.5521C10.5521 21.3533 11.1988 22 12 22C12.8012 22 13.4479 21.3533 13.4479 20.5521V13.4479H20.5521C21.3533 13.4479 22 12.8012 22 12C22 11.1988 21.3533 10.5521 20.5521 10.5521Z" fill="#3C3B44"/>
</g>
<defs>
<clipPath id="clip0_4191_807">
<rect width="24" height="24" fill="white"/>
</clipPath>
</defs>
</svg>
