<svg xmlns="http://www.w3.org/2000/svg" width="24" height="24" fill="none" viewBox="0 0 24 24"><g clip-path="url(#a)"><path fill="currentColor" fill-rule="evenodd" d="M12 1C5.93 1 1 5.93 1 12s4.93 11 11 11 11-4.93 11-11S18.07 1 12 1m-.05 5.14c.38 0 .69.31.69.69v4.45h4.45c.38 0 .69.31.69.69s-.31.69-.69.69h-4.45v4.54c0 .38-.31.69-.69.69s-.69-.31-.69-.69v-4.54H6.81c-.38 0-.69-.31-.69-.69s.31-.69.69-.69h4.45V6.83c0-.38.31-.69.69-.69" clip-rule="evenodd"/></g><defs><clipPath id="a"><path fill="currentColor" d="M0 0h24v24H0z"/></clipPath></defs></svg>