<svg width="24" height="24" viewBox="0 0 24 24" fill="none" xmlns="http://www.w3.org/2000/svg">
<g clip-path="url(#clip0_4923_439)">
<path fill-rule="evenodd" clip-rule="evenodd" d="M12 1C5.93 1 1 5.93 1 12C1 18.07 5.93 23 12 23C18.07 23 23 18.07 23 12C23 5.93 18.07 1 12 1ZM11.95 6.14C12.33 6.14 12.64 6.45 12.64 6.83V11.28H17.09C17.47 11.28 17.78 11.59 17.78 11.97C17.78 12.35 17.47 12.66 17.09 12.66H12.64V17.2C12.64 17.58 12.33 17.89 11.95 17.89C11.57 17.89 11.26 17.58 11.26 17.2V12.66H6.81C6.43 12.66 6.12 12.35 6.12 11.97C6.12 11.59 6.43 11.28 6.81 11.28H11.26V6.83C11.26 6.45 11.57 6.14 11.95 6.14Z" fill="#3C3B44"/>
</g>
<defs>
<clipPath id="clip0_4923_439">
<rect width="24" height="24" fill="white"/>
</clipPath>
</defs>
</svg>
