<svg xmlns="http://www.w3.org/2000/svg" width="24" height="24" fill="none" viewBox="0 0 24 24"><g fill="currentColor" clip-path="url(#a)"><path d="M21.436 18.667c.828 0 1.564.784 1.564 1.666S22.264 22 21.436 22H2.564C1.736 22 1 21.215 1 20.333s.736-1.666 1.564-1.666zM2.564 10.333l11.872.004c.828 0 1.564.784 1.564 1.666s-.736 1.667-1.565 1.667l-11.87-.003C1.735 13.667 1 12.882 1 12s.736-1.667 1.564-1.667m0-8.333 8.372.005c.828 0 1.564.784 1.564 1.666s-.736 1.667-1.565 1.667l-8.37-.005C1.735 5.333 1 4.55 1 3.667S1.736 2 2.564 2"/></g><defs><clipPath id="a"><path fill="currentColor" d="M0 0h24v24H0z"/></clipPath></defs></svg>