<svg width="24" height="24" viewBox="0 0 24 24" fill="none" xmlns="http://www.w3.org/2000/svg">
<g clip-path="url(#clip0_4879_376)">
<path d="M21.4355 18.6671C22.2638 18.6673 22.9999 19.4509 23 20.3331C23 21.2153 22.2638 21.9998 21.4355 22.0001H2.56445C1.73616 21.9998 1 21.2153 1 20.3331C1.00009 19.4509 1.73622 18.6673 2.56445 18.6671H21.4355Z" fill="#3C3B44"/>
<path d="M2.56445 10.3331L14.4355 10.337C15.2637 10.3372 15.9998 11.1209 16 12.003C16 12.8852 15.2638 13.6697 14.4355 13.67L2.56445 13.6671C1.73616 13.6668 1 12.8823 1 12.0001C1.00004 11.1179 1.73619 10.3333 2.56445 10.3331Z" fill="#3C3B44"/>
<path d="M2.56445 2.00006L10.9355 2.00494C11.7638 2.0052 12.4999 2.78882 12.5 3.67096C12.5 4.55317 11.7638 5.3377 10.9355 5.33795L2.56445 5.33307C1.73626 5.33282 1.00018 4.54913 1 3.66705C1 2.78484 1.73616 2.00031 2.56445 2.00006Z" fill="#3C3B44"/>
</g>
<defs>
<clipPath id="clip0_4879_376">
<rect width="24" height="24" fill="white"/>
</clipPath>
</defs>
</svg>
