<svg width="24" height="24" viewBox="0 0 24 24" fill="none" xmlns="http://www.w3.org/2000/svg">
<g clip-path="url(#clip0_4879_386)">
<path d="M10.9355 18.6623C11.7638 18.6625 12.5 19.4471 12.5 20.3293C12.4998 21.2114 11.7637 21.995 10.9355 21.9953L2.56445 22.0002C1.73616 21.9999 1 21.2154 1 20.3332C1.00009 19.451 1.73621 18.6674 2.56445 18.6672L10.9355 18.6623Z" fill="#3C3B44"/>
<path d="M14.4355 10.3303C15.2637 10.3305 15.9998 11.1142 16 11.9963C16 12.8785 15.2638 13.663 14.4355 13.6633L2.56445 13.6662C1.73624 13.6659 1.00013 12.8823 1 12.0002C1 11.118 1.73616 10.3334 2.56445 10.3332L14.4355 10.3303Z" fill="#3C3B44"/>
<path d="M21.4355 2.00018C22.2638 2.00044 23 2.78497 23 3.66718C22.9998 4.54925 22.2637 5.33294 21.4355 5.33319H2.56445C1.73627 5.33294 1.00018 4.54925 1 3.66718C1 2.78496 1.73616 2.00044 2.56445 2.00018H21.4355Z" fill="#3C3B44"/>
</g>
<defs>
<clipPath id="clip0_4879_386">
<rect width="24" height="24" fill="white"/>
</clipPath>
</defs>
</svg>
