<svg xmlns="http://www.w3.org/2000/svg" width="24" height="24" fill="none" viewBox="0 0 24 24"><g fill="currentColor" clip-path="url(#a)"><path d="M20.88 9.21a.77.77 0 0 1 .768.762v8.56c0 1.906-1.566 3.468-3.5 3.468H5.862c-1.924 0-3.5-1.552-3.5-3.469v-8.56a.77.77 0 0 1 .767-.76.77.77 0 0 1 .767.76v8.56c0 1.075.881 1.947 1.966 1.948h12.285a1.957 1.957 0 0 0 1.966-1.948v-8.56a.77.77 0 0 1 .768-.76"/><path fill-rule="evenodd" d="M13.827 9.667c.86 0 2.13.559 2.13 2.11v.903c0 .852-.564 2.109-2.13 2.109h-3.644c-.86 0-2.13-.558-2.13-2.11v-.902c0-.852.564-2.11 2.13-2.11zm-3.644 1.521c-.144 0-.584.001-.594.599v.893c0 .142 0 .577.604.588h3.634c.143 0 .584 0 .594-.6v-.89c0-.143 0-.58-.604-.59zM20.871 2C22.048 2 23 2.943 23 4.11v2.707a.77.77 0 0 1-.768.761H1.768A.77.77 0 0 1 1 6.818v-2.71C1 2.953 1.952 2 3.129 2zM3.13 3.52a.59.59 0 0 0-.594.588v1.948h18.94V4.109A.59.59 0 0 0 21 3.533l-.12-.012z" clip-rule="evenodd"/></g><defs><clipPath id="a"><path fill="currentColor" d="M0 0h24v24H0z"/></clipPath></defs></svg>