<svg xmlns="http://www.w3.org/2000/svg" width="24" height="24" fill="none" viewBox="0 0 24 24"><g fill="currentColor" clip-path="url(#a)"><path d="M8.69 15.222a.74.74 0 0 1 1.038 0 .74.74 0 0 1 0 1.037L6.46 19.526a.73.73 0 0 1-.519.216v-.01h-.068a.74.74 0 0 1-.538-.323l-.94-1.4a.73.73 0 0 1 .206-1.017.73.73 0 0 1 1.017.206l.44.656z"/><path fill-rule="evenodd" d="M6.871 11.259a5.876 5.876 0 0 1 5.87 5.87A5.875 5.875 0 0 1 6.871 23 5.876 5.876 0 0 1 1 17.13a5.876 5.876 0 0 1 5.871-5.871m0 1.468a4.41 4.41 0 0 0-4.403 4.403 4.41 4.41 0 0 0 4.403 4.402 4.41 4.41 0 0 0 4.402-4.402 4.41 4.41 0 0 0-4.402-4.403" clip-rule="evenodd"/><path fill-rule="evenodd" d="M14.59 1.093a2.6 2.6 0 0 1 1.976.255c.43.244.773.606 1.008 1.037h1.439l.113.009c.26.04.476.22.57.46h1.656l.17.008c.84.085 1.493.794 1.493 1.665v16.81c0 .92-.744 1.663-1.663 1.663h-8.875a.74.74 0 0 1-.734-.734.74.74 0 0 1 .734-.734h8.875a.196.196 0 0 0 .195-.195V4.527a.21.21 0 0 0-.156-.2l-.04-.006h-1.604v1.595a.74.74 0 0 1-.734.734h-7.476a.74.74 0 0 1-.733-.734V4.312H9.199a.2.2 0 0 0-.195.206v5.136a.74.74 0 0 1-.734.734.74.74 0 0 1-.734-.734V4.518c0-.92.744-1.674 1.663-1.674h1.658a.74.74 0 0 1 .68-.46h1.439a2.64 2.64 0 0 1 1.614-1.291m1.253 1.536a1.135 1.135 0 0 0-1.653.685.72.72 0 0 1-.706.538h-1.203v1.33h5.998v-1.33h-1.204a.734.734 0 0 1-.704-.539 1.1 1.1 0 0 0-.528-.684" clip-rule="evenodd"/><path d="M19.013 18.265a.74.74 0 0 1 .734.733.74.74 0 0 1-.734.734h-3.268a.74.74 0 0 1-.733-.734c0-.401.332-.733.733-.733zm0-3.269a.74.74 0 0 1 .734.734.74.74 0 0 1-.734.734h-3.268a.74.74 0 0 1-.733-.733.74.74 0 0 1 .733-.735zm.001-3.267c.4 0 .733.332.733.733a.74.74 0 0 1-.733.734h-5.138a.74.74 0 0 1-.733-.734c0-.401.332-.733.733-.733zm-.001-3.279a.74.74 0 0 1 .734.735.74.74 0 0 1-.734.733h-7.476a.74.74 0 0 1-.733-.733.74.74 0 0 1 .733-.735z"/></g><defs><clipPath id="a"><path fill="currentColor" d="M0 0h24v24H0z"/></clipPath></defs></svg>