<svg xmlns="http://www.w3.org/2000/svg" width="24" height="24" fill="none" viewBox="0 0 24 24"><g fill="currentColor" fill-rule="evenodd" clip-path="url(#a)" clip-rule="evenodd"><path d="M13.714 19.154c.202.01.343.05.474.12.12.069.221.14.312.239l1.926 1.783c.11.16.17.349.181.548 0 .2-.03.39-.12.559a1.15 1.15 0 0 1-.394.428 1.04 1.04 0 0 1-.564.169h-7.2l-.01-.01a1.14 1.14 0 0 1-.504-.14 1.14 1.14 0 0 1-.443-.478 1 1 0 0 1-.13-.508c0-.199.06-.398.16-.568l.121-.139 1.855-1.674c.05-.06.172-.16.313-.22.131-.069.292-.1.443-.11zm-4.85 2.541h6.11l-1.38-1.256h-3.339zm1.26-1.226.102-.03h-.071zM21.044 1c.514 0 1.018.21 1.381.559.373.368.575.846.575 1.364v13.581c0 .508-.212 1.006-.575 1.355a1.96 1.96 0 0 1-1.381.558H2.956c-.524 0-1.008-.2-1.381-.568A1.9 1.9 0 0 1 1 16.493V2.913c0-.508.202-.996.575-1.354A1.97 1.97 0 0 1 2.956 1zM2.32 16.484c0 .17.072.329.183.438.12.12.282.19.453.19h18.088c.171 0 .332-.07.453-.18a.62.62 0 0 0 .182-.439V15.02H2.32zm0-2.76h19.36V4.597H2.32zm.636-11.439a.68.68 0 0 0-.453.18.62.62 0 0 0-.183.438v.4h19.36v-.39a.62.62 0 0 0-.181-.438.64.64 0 0 0-.454-.18H2.956z"/></g><defs><clipPath id="a"><path fill="currentColor" d="M0 0h24v24H0z"/></clipPath></defs></svg>