<svg xmlns="http://www.w3.org/2000/svg" width="24" height="24" fill="none" viewBox="0 0 24 24"><g clip-path="url(#a)"><path fill="currentColor" d="M17.421 1c-1.974 0-3.579 1.57-3.579 3.49 0 1.64 1.172 3.02 2.756 3.38-.319 2.3-2.344 4.07-4.802 4.07H8.35V7.89c1.615-.34 2.818-1.73 2.818-3.4C11.168 2.57 9.564 1 7.58 1S4 2.57 4 4.49c0 1.66 1.203 3.05 2.808 3.4v8.23C5.203 16.47 4 17.86 4 19.52 4 21.44 5.604 23 7.579 23s3.59-1.56 3.59-3.48c0-1.67-1.204-3.06-2.819-3.4v-2.68h3.446c3.29 0 6.016-2.43 6.355-5.54C19.776 7.57 21 6.17 21 4.49 21 2.57 19.396 1 17.421 1M5.543 4.49c0-1.1.915-1.99 2.036-1.99s2.047.89 2.047 1.99-.916 1.98-2.047 1.98-2.036-.89-2.036-1.98m4.083 15.03c0 1.09-.916 1.98-2.047 1.98s-2.036-.89-2.036-1.98.915-1.98 2.036-1.98 2.047.89 2.047 1.98M17.42 6.47c-1.12 0-2.036-.89-2.036-1.98S16.3 2.5 17.42 2.5s2.036.89 2.036 1.99-.915 1.98-2.036 1.98"/></g><defs><clipPath id="a"><path fill="currentColor" d="M0 0h24v24H0z"/></clipPath></defs></svg>