<svg xmlns="http://www.w3.org/2000/svg" width="24" height="24" fill="none" viewBox="0 0 24 24"><path fill="currentColor" fill-rule="evenodd" d="M20.194 3.219a.757.757 0 0 1 1.065 0 .76.76 0 0 1 0 1.066l-2.74 2.746a19.3 19.3 0 0 1 3.894 3.28 2.27 2.27 0 0 1 0 3.047c-2.409 2.646-6.414 5.443-10.429 5.393h-.14c-1.394 0-2.78-.353-4.105-.916l-3.934 3.943a.74.74 0 0 1-.532.222.75.75 0 0 1-.532-.222.76.76 0 0 1 0-1.066zm-4.536 6.68c.311.583.502 1.237.502 1.94a4.173 4.173 0 0 1-4.165 4.176 4.1 4.1 0 0 1-1.713-.392l-.224-.111-1.164 1.167c1.013.362 2.047.583 3.09.563 3.36.076 6.693-2.183 8.891-4.447l.424-.452h-.01a.757.757 0 0 0 0-1.016 17.8 17.8 0 0 0-3.854-3.209zm-4.446 4.476c.25.08.522.13.793.13a2.67 2.67 0 0 0 2.66-2.665h.01c0-.282-.06-.543-.14-.795z" clip-rule="evenodd"/><path fill="currentColor" d="M12.005 4.919c1.244-.03 2.489.231 3.693.674L14.514 6.78c-.823-.241-1.666-.382-2.5-.352h-.15c-3.472 0-7.005 2.525-9.153 4.909a.757.757 0 0 0 0 1.016 18 18 0 0 0 3.362 2.897h-.01L4.99 16.326a19.5 19.5 0 0 1-3.402-2.968 2.27 2.27 0 0 1 0-3.047C3.996 7.665 7.98 4.829 12.005 4.919"/><path fill="currentColor" d="M12.005 7.655c.492 0 .953.1 1.385.251l-1.265 1.268c-.04 0-.12-.01-.12-.01a2.667 2.667 0 0 0-2.66 2.666c0 .04.01.115.01.12l-1.264 1.268a4.3 4.3 0 0 1-.251-1.388 4.173 4.173 0 0 1 4.165-4.175"/></svg>