<svg width="24" height="24" viewBox="0 0 24 24" fill="none" xmlns="http://www.w3.org/2000/svg">
<g clip-path="url(#clip0_4388_316)">
<path fill-rule="evenodd" clip-rule="evenodd" d="M16.457 16.5703C17.3092 16.5703 18.1269 16.9082 18.7295 17.5107C19.1521 17.9334 19.4449 18.4623 19.582 19.0342H22.25L22.3271 19.0381C22.7051 19.0767 23 19.396 23 19.7842C22.9999 20.1983 22.6641 20.5342 22.25 20.5342H19.5811C19.4437 21.1051 19.1515 21.6326 18.7295 22.0547C18.1269 22.6572 17.3092 22.9961 16.457 22.9961C15.605 22.9961 14.7881 22.6572 14.1855 22.0547C13.8154 21.6845 13.5442 21.2337 13.3906 20.7432L13.332 20.5312H1.75C1.33583 20.5312 1.00007 20.1954 1 19.7812C1 19.367 1.33579 19.0312 1.75 19.0312H13.333C13.4704 18.4604 13.7636 17.9327 14.1855 17.5107C14.788 16.9084 15.6051 16.5703 16.457 16.5703ZM16.457 18.0703C16.0029 18.0703 15.5673 18.2503 15.2461 18.5713C14.9248 18.8925 14.7441 19.3289 14.7441 19.7832C14.7442 20.2374 14.9249 20.673 15.2461 20.9941C15.5673 21.3153 16.0028 21.4961 16.457 21.4961C16.9113 21.4961 17.3467 21.3153 17.668 20.9941C17.9892 20.673 18.1699 20.2374 18.1699 19.7832C18.1699 19.3289 17.9892 18.8925 17.668 18.5713C17.3468 18.2503 16.9112 18.0703 16.457 18.0703Z" fill="#3C3B44"/>
<path fill-rule="evenodd" clip-rule="evenodd" d="M7.54297 9C7.9648 9 8.38273 9.08276 8.77246 9.24414C9.16228 9.40561 9.51708 9.64305 9.81543 9.94141C10.1136 10.2397 10.3503 10.5937 10.5117 10.9834C10.576 11.1386 10.6278 11.2983 10.667 11.4609H22.25C22.6642 11.4609 22.9999 11.7968 23 12.2109C23 12.6252 22.6642 12.9609 22.25 12.9609H10.668C10.6287 13.1248 10.5765 13.286 10.5117 13.4424C10.3503 13.8322 10.1138 14.187 9.81543 14.4854C9.51708 14.7837 9.16228 15.0202 8.77246 15.1816C8.38271 15.343 7.96482 15.4258 7.54297 15.4258C7.12108 15.4258 6.70325 15.3431 6.31348 15.1816C5.92382 15.0202 5.56976 14.7835 5.27148 14.4854C4.97313 14.187 4.73569 13.8322 4.57422 13.4424C4.50945 13.286 4.4572 13.1248 4.41797 12.9609H1.75C1.33579 12.9609 1 12.6252 1 12.2109C1.00007 11.7968 1.33583 11.4609 1.75 11.4609H4.41895C4.45808 11.2983 4.50993 11.1386 4.57422 10.9834C4.73569 10.5936 4.97313 10.2398 5.27148 9.94141C5.56984 9.64305 5.92366 9.40561 6.31348 9.24414C6.70323 9.08272 7.12111 9.00001 7.54297 9ZM7.54297 10.5C7.31805 10.5 7.09549 10.5448 6.8877 10.6309C6.67988 10.7169 6.49109 10.8429 6.33203 11.002C6.17297 11.161 6.04702 11.3498 5.96094 11.5576C5.87487 11.7654 5.83009 11.988 5.83008 12.2129C5.83008 12.4378 5.87489 12.6604 5.96094 12.8682C6.047 13.0759 6.17302 13.2648 6.33203 13.4238C6.4911 13.5829 6.67987 13.7098 6.8877 13.7959C7.09543 13.8819 7.31814 13.9258 7.54297 13.9258C7.76777 13.9258 7.99053 13.8819 8.19824 13.7959C8.40607 13.7098 8.59484 13.5829 8.75391 13.4238C8.91297 13.2648 9.03989 13.076 9.12598 12.8682C9.21195 12.6605 9.25586 12.4377 9.25586 12.2129C9.25585 11.9881 9.21198 11.7653 9.12598 11.5576C9.03989 11.3498 8.91297 11.161 8.75391 11.002C8.59486 10.8429 8.40603 10.7169 8.19824 10.6309C7.99046 10.5448 7.76787 10.5 7.54297 10.5Z" fill="#3C3B44"/>
<path fill-rule="evenodd" clip-rule="evenodd" d="M16.457 1C17.3092 1 18.1269 1.33885 18.7295 1.94141C19.1799 2.39198 19.4824 2.96271 19.6064 3.57812H22.25L22.3271 3.58203C22.7051 3.62066 23 3.93996 23 4.32812C22.9999 4.74228 22.6642 5.07812 22.25 5.07812H19.5518C19.4044 5.60535 19.1234 6.09141 18.7295 6.48535C18.1269 7.08791 17.3092 7.42578 16.457 7.42578C15.6051 7.42575 14.788 7.08764 14.1855 6.48535C13.8407 6.14055 13.5818 5.72515 13.4238 5.27344L13.3623 5.07812H1.75C1.33583 5.07812 1.00007 4.74228 1 4.32812C1 3.91391 1.33579 3.57812 1.75 3.57812H13.3076C13.4317 2.96254 13.7349 2.39204 14.1855 1.94141C14.7881 1.33888 15.6049 1.00003 16.457 1ZM16.457 2.5C16.0028 2.50003 15.5673 2.68073 15.2461 3.00195C14.9249 3.32318 14.7442 3.75861 14.7441 4.21289C14.7441 4.66716 14.9249 5.10259 15.2461 5.42383C15.5673 5.74505 16.0028 5.92575 16.457 5.92578C16.9113 5.92578 17.3467 5.74508 17.668 5.42383C17.9892 5.10258 18.1699 4.66721 18.1699 4.21289C18.1699 3.75861 17.9892 3.32318 17.668 3.00195C17.3467 2.68077 16.9113 2.5 16.457 2.5Z" fill="#3C3B44"/>
</g>
<defs>
<clipPath id="clip0_4388_316">
<rect width="24" height="24" fill="white"/>
</clipPath>
</defs>
</svg>
