<svg xmlns="http://www.w3.org/2000/svg" width="24" height="24" fill="none" viewBox="0 0 24 24"><g fill="currentColor" clip-path="url(#a)"><path fill-rule="evenodd" d="M6.875 8.872a2 2 0 0 1-1.413-.586 2.1 2.1 0 0 1-.436-.65 2.02 2.02 0 0 1 0-1.527 2 2 0 0 1 1.085-1.084 1.98 1.98 0 0 1 2.177.435 2 2 0 0 1 .587 1.413 2 2 0 0 1-.587 1.413 2.1 2.1 0 0 1-.649.435c-.24.097-.498.15-.764.15m0-2.665a.7.7 0 0 0-.471.195.7.7 0 0 0-.196.47q0 .136.053.258a.7.7 0 0 0 .142.214.6.6 0 0 0 .214.142.63.63 0 0 0 .506 0 .7.7 0 0 0 .223-.142.7.7 0 0 0 .195-.471.73.73 0 0 0-.196-.48.7.7 0 0 0-.47-.195z" clip-rule="evenodd"/><path fill-rule="evenodd" d="M14.057 23a1.5 1.5 0 0 1-.346-.038 1.45 1.45 0 0 1-.663-.379L2.042 11.57A3.53 3.53 0 0 1 1 9.06V3.131c0-.559.227-1.108.625-1.506A2.15 2.15 0 0 1 3.131 1h5.93c.947 0 1.837.37 2.51 1.042l11.015 11.014c.18.18.313.407.37.653.066.256.056.512-.02.758a1.5 1.5 0 0 1-.407.644c-.189.17-.416.284-.672.341l-5.342 1.07-1.07 5.342a1.4 1.4 0 0 1-.341.672c-.171.19-.398.331-.645.407a1.5 1.5 0 0 1-.402.057M3.13 2.42a.71.71 0 0 0-.71.71v5.93c0 .568.218 1.108.625 1.505L14.062 21.58l1.165-5.805a.71.71 0 0 1 .559-.559l5.806-1.155L10.567 3.046A2.15 2.15 0 0 0 9.06 2.42z" clip-rule="evenodd"/><path d="M14.057 23h.005-.01z"/></g><defs><clipPath id="a"><path fill="currentColor" d="M0 0h24v24H0z"/></clipPath></defs></svg>