<svg xmlns="http://www.w3.org/2000/svg" width="24" height="24" fill="none" viewBox="0 0 24 24"><g fill="currentColor" fill-rule="evenodd" clip-path="url(#a)" clip-rule="evenodd"><path d="M11.993 1c.958 0 1.78.611 2.094 1.464h4.377a.77.77 0 0 1 .8.419l3.652 7.305a.764.764 0 0 1-.348 1.034.8.8 0 0 1-.338.082h-.01a.76.76 0 0 1-.685-.43l-2.958-5.919-2.963 5.93a.77.77 0 0 1-.685.42h-.01a.8.8 0 0 1-.338-.082.78.78 0 0 1-.348-1.035l3.094-6.19h-3.24a2.25 2.25 0 0 1-1.325 1.326v16.14h3.61l.076.005c.384.04.69.37.69.763 0 .42-.348.768-.767.768H7.606a.773.773 0 0 1-.766-.768c0-.42.347-.767.766-.767h3.62V5.325A2.25 2.25 0 0 1 9.9 3.998H6.67l3.095 6.19a.764.764 0 0 1-.348 1.034.8.8 0 0 1-.338.082h-.01a.76.76 0 0 1-.685-.43L5.423 4.949l-2.961 5.925a.78.78 0 0 1-.685.43h-.01a.8.8 0 0 1-.337-.082.78.78 0 0 1-.348-1.034l3.621-7.247a.78.78 0 0 1 .833-.477H9.9A2.24 2.24 0 0 1 11.993 1m0 1.535a.697.697 0 0 0-.695.688v.016a.69.69 0 0 0 .695.688.69.69 0 0 0 .697-.69v-.013a.69.69 0 0 0-.697-.689"/><path d="M9.07 12c.418 0 .766.348.766.768a4.427 4.427 0 0 1-4.418 4.42A4.427 4.427 0 0 1 1 12.767c0-.42.347-.768.767-.768zm-6.433 1.535a2.89 2.89 0 0 0 2.781 2.118 2.89 2.89 0 0 0 2.709-1.893l.072-.225zM22.22 12c.42 0 .767.348.767.768a4.427 4.427 0 0 1-4.418 4.42 4.427 4.427 0 0 1-4.418-4.42c0-.42.348-.768.767-.768zm-6.432 1.535a2.89 2.89 0 0 0 2.781 2.118 2.89 2.89 0 0 0 2.71-1.893l.072-.225z"/></g><defs><clipPath id="a"><path fill="currentColor" d="M0 0h24v24H0z"/></clipPath></defs></svg>