<svg xmlns="http://www.w3.org/2000/svg" width="24" height="24" fill="none" viewBox="0 0 24 24"><g fill="currentColor" clip-path="url(#a)"><path d="M12.06 14.23c1.139 0 2.061.898 2.061 2.007s-.923 2.008-2.06 2.008-2.06-.9-2.061-2.008.922-2.008 2.06-2.008"/><path fill-rule="evenodd" d="M11.532 1a6 6 0 0 1 4.224 1.703 5.8 5.8 0 0 1 1.747 4.114v2.611q-.002.195-.089.358h1.412l.223.012c1.1.109 1.951 1.016 1.951 2.117v8.967C21 22.056 20.032 23 18.826 23H5.185C3.979 23 3 22.056 3 20.882v-8.967c0-1.175.98-2.13 2.185-2.13h10.779a.76.76 0 0 1-.089-.357v-2.61c0-1.111-.467-2.2-1.27-2.994a4.4 4.4 0 0 0-3.073-1.237A4.4 4.4 0 0 0 8.46 3.824 4.24 4.24 0 0 0 7.32 5.78a.807.807 0 0 1-.987.571c-.434-.105-.706-.539-.587-.962A5.76 5.76 0 0 1 7.31 2.703 6 6 0 0 1 11.532 1M5.185 11.292a.634.634 0 0 0-.64.623v8.967c0 .34.29.612.64.612h13.641c.35 0 .628-.271.628-.612v-8.967a.624.624 0 0 0-.5-.61l-.128-.013z" clip-rule="evenodd"/></g><defs><clipPath id="a"><path fill="currentColor" d="M0 0h24v24H0z"/></clipPath></defs></svg>