<svg xmlns="http://www.w3.org/2000/svg" width="24" height="24" fill="none" viewBox="0 0 24 24"><g clip-path="url(#a)"><path fill="currentColor" fill-rule="evenodd" d="M18.96 1a4.03 4.03 0 0 1 2.865 1.172l.002.002a4.02 4.02 0 0 1-.035 5.713L8.503 21.175a.7.7 0 0 1-.315.18l-6.33 1.624a.688.688 0 0 1-.836-.837l1.622-6.33a.7.7 0 0 1 .18-.315L16.112 2.208A4.02 4.02 0 0 1 18.96 1M2.641 21.36l4.583-1.176-3.409-3.407zm1.97-5.706 3.735 3.734 12.04-12.04-3.734-3.735zM18.97 2.375a2.65 2.65 0 0 0-1.29.345l3.6 3.6a2.66 2.66 0 0 0 .346-1.29 2.65 2.65 0 0 0-.77-1.884 2.65 2.65 0 0 0-1.886-.77" clip-rule="evenodd"/></g><defs><clipPath id="a"><path fill="currentColor" d="M0 0h24v24H0z"/></clipPath></defs></svg>