<svg xmlns="http://www.w3.org/2000/svg" width="24" height="24" fill="none" viewBox="0 0 24 24"><g clip-path="url(#a)"><path fill="currentColor" d="M18.83 23a4.3 4.3 0 0 1-1.592-.313 4.16 4.16 0 0 1-2.286-2.318l-2.015 2.016c-.796.796-2.206.796-3.002 0L8.021 20.47a.77.77 0 0 1-.211-.675.75.75 0 0 1 .453-.554 2.6 2.6 0 0 0 1.027-.776c.272-.333.464-.736.544-1.17.08-.423.06-.866-.07-1.29a2.5 2.5 0 0 0-.665-1.098A2.8 2.8 0 0 0 8 14.242a2.8 2.8 0 0 0-1.29-.07c-.423.08-.825.272-1.168.544a2.7 2.7 0 0 0-.776 1.028.77.77 0 0 1-.554.453.75.75 0 0 1-.675-.211L1.625 14.07A2.14 2.14 0 0 1 1 12.569c0-.564.222-1.098.625-1.501l2.014-2.016a4.16 4.16 0 0 1-2.317-2.288 4.2 4.2 0 0 1-.231-2.408A4.14 4.14 0 0 1 2.229 2.22a4.19 4.19 0 0 1 4.543-.907c.766.322 1.41.846 1.874 1.531.17.252.302.514.413.786l2.014-2.015c.796-.796 2.206-.796 3.002 0L15.99 3.54a.77.77 0 0 1 .212.675.79.79 0 0 1-.454.554 2.6 2.6 0 0 0-1.027.776 2.6 2.6 0 0 0-.544 1.17c-.08.422-.06.866.06 1.279.131.413.353.796.665 1.109.302.302.685.534 1.098.665a2.7 2.7 0 0 0 2.458-.484 2.6 2.6 0 0 0 .765-1.028.77.77 0 0 1 .555-.453c.251-.04.503.03.674.211l1.924 1.915c.403.403.625.937.625 1.502 0 .564-.222 1.108-.625 1.501l-2.014 2.016a4.16 4.16 0 0 1 2.317 2.288c.312.765.403 1.592.241 2.408a4.14 4.14 0 0 1-1.138 2.136 4.14 4.14 0 0 1-2.135 1.14c-.272.05-.544.08-.816.08m-3.415-4.928a.76.76 0 0 1 .755.756c0 .524.151 1.038.454 1.47a2.74 2.74 0 0 0 1.188.979 2.654 2.654 0 0 0 3.617-1.936c.1-.513.05-1.047-.151-1.531a2.7 2.7 0 0 0-.978-1.19 2.63 2.63 0 0 0-1.47-.443.75.75 0 0 1-.695-.463.76.76 0 0 1 .16-.827l3.013-3.013a.63.63 0 0 0 .181-.433.6.6 0 0 0-.181-.434l-1.23-1.23a4.15 4.15 0 0 1-2.498 1.542 4.25 4.25 0 0 1-2.014-.1 4.3 4.3 0 0 1-1.733-1.038 4.2 4.2 0 0 1-1.037-1.733 4.14 4.14 0 0 1-.1-2.016c.13-.665.422-1.3.855-1.824q.305-.378.685-.665l-1.229-1.23a.634.634 0 0 0-.856 0L9.14 5.727a.757.757 0 0 1-1.29-.534 2.63 2.63 0 0 0-.442-1.472 2.7 2.7 0 0 0-1.189-.977A2.654 2.654 0 0 0 2.753 6.21c.201.484.544.897.977 1.19s.947.443 1.47.443c.303 0 .585.181.696.463.12.283.05.605-.162.827l-3.011 3.013a.63.63 0 0 0-.182.433.6.6 0 0 0 .182.434l1.228 1.23c.192-.253.424-.485.665-.686A4.16 4.16 0 0 1 6.45 12.7a4.26 4.26 0 0 1 2.014.101c.645.202 1.25.554 1.733 1.038a4.2 4.2 0 0 1 1.037 1.733 4.14 4.14 0 0 1 .101 2.016 4.1 4.1 0 0 1-.856 1.824 4 4 0 0 1-.685.665l1.229 1.23a.634.634 0 0 0 .856 0l3.012-3.013a.76.76 0 0 1 .534-.222z"/></g><defs><clipPath id="a"><path fill="currentColor" d="M0 0h24v24H0z"/></clipPath></defs></svg>