<svg xmlns="http://www.w3.org/2000/svg" width="24" height="24" fill="none" viewBox="0 0 24 24"><g clip-path="url(#a)"><path fill="currentColor" fill-rule="evenodd" d="M11.988 1h.003c.401 0 .793.118 1.126.34s.591.537.742.906l.005.014 1.886 5.307h5.249c.41.003.81.131 1.145.366.332.234.585.562.724.94a1.965 1.965 0 0 1-.52 2.175l-.012.01-4.502 3.7 1.88 5.574a1.97 1.97 0 0 1-.708 2.299 2.01 2.01 0 0 1-2.42-.074l-4.599-3.335-4.603 3.345a2.01 2.01 0 0 1-2.362.004 1.98 1.98 0 0 1-.725-1c-.128-.4-.123-.83.013-1.228v-.002l1.883-5.582-4.488-3.688a1.97 1.97 0 0 1-.596-2.164l.002-.005a2 2 0 0 1 .727-.953 2 2 0 0 1 1.15-.364h5.246l1.888-5.265v-.002c.136-.383.387-.716.721-.952A2 2 0 0 1 11.988 1m.005 1.317a.66.66 0 0 0-.615.436l-.001.004-1.943 5.417-.001.004a1.1 1.1 0 0 1-1.042.724h-5.4a.67.67 0 0 0-.624.436.67.67 0 0 0 .2.729l4.588 3.77a1.1 1.1 0 0 1 .352 1.184l-.002.007-1.934 5.734v.003a.65.65 0 0 0 .236.743.67.67 0 0 0 .788-.001l4.734-3.44a1.11 1.11 0 0 1 1.316-.001l4.759 3.452.015.013a.67.67 0 0 0 1.063-.317.65.65 0 0 0-.016-.425l-.005-.014-1.941-5.754a1.09 1.09 0 0 1 .352-1.183l.003-.003 4.585-3.769a.67.67 0 0 0 .164-.724l-.003-.008-.003-.008a.67.67 0 0 0-.627-.442h-5.398c-.228 0-.45-.07-.637-.199a1.1 1.1 0 0 1-.406-.525l-.002-.005-1.928-5.427a.68.68 0 0 0-.627-.411" clip-rule="evenodd"/></g><defs><clipPath id="a"><path fill="currentColor" d="M0 0h24v24H0z"/></clipPath></defs></svg>