<svg xmlns="http://www.w3.org/2000/svg" width="24" height="24" fill="none" viewBox="0 0 24 24"><g fill="currentColor" clip-path="url(#a)"><path fill-rule="evenodd" d="M11.995 7.7c1.555 0 2.813 1.247 2.813 2.787 0 1.277-.865 2.35-2.046 2.68v8.073a.77.77 0 0 1-.767.76.77.77 0 0 1-.768-.76v-8.073a2.79 2.79 0 0 1-2.045-2.68c0-1.54 1.258-2.787 2.813-2.787m0 1.52c-.706 0-1.28.568-1.28 1.267 0 .7.574 1.267 1.28 1.267s1.278-.568 1.278-1.267-.572-1.266-1.278-1.266" clip-rule="evenodd"/><path d="M4.875 2.187a.77.77 0 0 1 1.084.091c.276.325.235.8-.092 1.074a10 10 0 0 0-1.084 1.075c-3.376 3.932-2.895 9.85 1.084 13.205.327.273.358.75.092 1.074a.78.78 0 0 1-.583.264h-.01a.8.8 0 0 1-.5-.183 10.8 10.8 0 0 1-3.827-7.418c-.246-2.898.675-5.716 2.578-7.936a11 11 0 0 1 1.258-1.246m13.165.081a.78.78 0 0 1 1.085-.091c.45.375.869.8 1.258 1.247 1.902 2.22 2.823 5.037 2.578 7.935-.235 2.899-1.606 5.533-3.836 7.418a.77.77 0 0 1-.501.183v.01a.754.754 0 0 1-.491-1.338 9.325 9.325 0 0 0 0-14.29.763.763 0 0 1-.093-1.074"/><path d="M7.524 5.278a.77.77 0 0 1 1.084.091c.276.324.236.8-.091 1.074a5.3 5.3 0 0 0 0 8.107c.327.274.357.75.091 1.075a.78.78 0 0 1-.583.264v-.01a.8.8 0 0 1-.5-.183 6.796 6.796 0 0 1 0-10.418m7.865.082a.79.79 0 0 1 1.085-.092 6.804 6.804 0 0 1 0 10.418.76.76 0 0 1-.5.183v.01a.754.754 0 0 1-.491-1.338 5.28 5.28 0 0 0 .613-7.5 5 5 0 0 0-.614-.608.763.763 0 0 1-.093-1.074"/></g><defs><clipPath id="a"><path fill="currentColor" d="M0 0h24v24H0z"/></clipPath></defs></svg>