<svg width="24" height="24" viewBox="0 0 24 24" fill="none" xmlns="http://www.w3.org/2000/svg">
<g clip-path="url(#clip0_6020_960)">
<path d="M12 1C12.5159 1.00009 12.9434 1.33257 12.9434 1.7334V22.2666C12.9434 22.6674 12.5159 22.9999 12 23C11.484 23 11.0557 22.6675 11.0557 22.2666V1.7334C11.0557 1.33251 11.484 1 12 1Z" fill="#3C3B44"/>
<path d="M6.97168 5.10645C7.48757 5.10645 7.91589 5.43903 7.91602 5.83984V18.1602C7.91592 18.561 7.48759 18.8936 6.97168 18.8936C6.45583 18.8935 6.02842 18.561 6.02832 18.1602V5.83984C6.02845 5.43907 6.45585 5.1065 6.97168 5.10645Z" fill="#3C3B44"/>
<path d="M17.0273 5.10645C17.5432 5.10645 17.9716 5.43903 17.9717 5.83984V18.1602C17.9716 18.561 17.5433 18.8936 17.0273 18.8936C16.5116 18.8934 16.0841 18.5609 16.084 18.1602V5.83984C16.0841 5.43914 16.5116 5.10662 17.0273 5.10645Z" fill="#3C3B44"/>
<path d="M1.94336 9.21289C2.4592 9.21289 2.88749 9.54553 2.8877 9.94629V14.21C2.8875 14.6107 2.45921 14.9434 1.94336 14.9434C1.42773 14.9432 1.0002 14.6106 1 14.21V9.94629C1.0002 9.54565 1.42773 9.2131 1.94336 9.21289Z" fill="#3C3B44"/>
<path d="M22.0557 9.21289C22.5716 9.21289 22.9999 9.54548 23 9.94629V14.21C22.9997 14.6107 22.5715 14.9434 22.0557 14.9434C21.5399 14.9433 21.1126 14.6107 21.1123 14.21V9.94629C21.1124 9.5455 21.5398 9.21292 22.0557 9.21289Z" fill="#3C3B44"/>
</g>
<defs>
<clipPath id="clip0_6020_960">
<rect width="24" height="24" fill="white"/>
</clipPath>
</defs>
</svg>
