<svg xmlns="http://www.w3.org/2000/svg" width="24" height="24" fill="none" viewBox="0 0 24 24"><g clip-path="url(#a)"><path fill="currentColor" fill-rule="evenodd" d="m20.243 1.75.12.007a2.7 2.7 0 0 1 1.125.35c.675.39 1.262 1.15 1.262 2.444v14.903l-.001.029-.004.09a3.6 3.6 0 0 1-.278 1.188c-.146.336-.38.71-.758 1.002-.389.3-.885.475-1.484.475h-4.772a.8.8 0 0 1-.253 0H8.79a.8.8 0 0 1-.253 0h-4.78a1 1 0 0 1-.12-.006 2.7 2.7 0 0 1-1.125-.35c-.675-.39-1.262-1.15-1.262-2.444V4.534l.001-.028.004-.089a3.6 3.6 0 0 1 .278-1.19c.146-.335.38-.709.758-1 .389-.3.885-.477 1.484-.477zM2.75 19.438c0 .757.3 1.023.513 1.145a1.2 1.2 0 0 0 .498.155h4.153v-5.677H2.75zm6.664 1.3h5.163v-5.677H9.414zm6.663 0h4.148c.287 0 .457-.078.568-.163q.181-.143.297-.41a2 2 0 0 0 .158-.685l.002-.041V15.06h-5.173zM2.75 13.561h5.164V7.87H2.75zm6.664 0h5.163V7.87H9.414zm6.663 0h5.173V7.87h-5.173zM3.775 3.25c-.288 0-.457.079-.568.164a1 1 0 0 0-.297.408 2 2 0 0 0-.158.686l-.002.041V6.37h18.5V4.55c0-.757-.3-1.022-.513-1.145a1.2 1.2 0 0 0-.498-.154l-.022-.002z" clip-rule="evenodd"/></g><defs><clipPath id="a"><path fill="currentColor" d="M0 0h24v24H0z"/></clipPath></defs></svg>