<svg xmlns="http://www.w3.org/2000/svg" width="24" height="24" fill="none" viewBox="0 0 24 24"><g fill="currentColor" clip-path="url(#a)"><path d="M13.874 1.102a.694.694 0 0 1 .723 1.183l-1.929 1.178a9.8 9.8 0 0 1 6.777 3.661 9.79 9.79 0 1 1-15.92 11.352.693.693 0 0 1 1.17-.746A8.403 8.403 0 1 0 14.73 5.345a8.4 8.4 0 0 0-2.848-.534l2.328 1.892a.694.694 0 1 1-.874 1.076L9.638 4.774a.693.693 0 0 1 .075-1.13z"/><path d="M11.929 9.09a.694.694 0 0 1 .693.694v4.623c0 .184-.074.36-.204.49l-2.772 2.774a.694.694 0 0 1-.982-.98l2.57-2.57.002-4.337c0-.383.31-.693.693-.693M2.16 11.415a.694.694 0 0 1 1.365.245 8.75 8.75 0 0 0 .111 3.622.693.693 0 1 1-1.347.328 10.1 10.1 0 0 1-.13-4.195M6.654 4.88a.693.693 0 0 1 .728 1.18 8.5 8.5 0 0 0-2.601 2.51.694.694 0 0 1-1.153-.771 9.9 9.9 0 0 1 3.026-2.92"/></g><defs><clipPath id="a"><path fill="currentColor" d="M0 0h24v24H0z"/></clipPath></defs></svg>