<svg xmlns="http://www.w3.org/2000/svg" width="24" height="24" fill="none" viewBox="0 0 24 24"><g fill="currentColor" clip-path="url(#a)"><path d="M20.235 21.492c.418 0 .765.342.765.754a.765.765 0 0 1-.765.754H3.765A.765.765 0 0 1 3 22.246c0-.412.347-.754.765-.754zm-1.08-20.404a.78.78 0 0 1 1.04.311.756.756 0 0 1-.316 1.025l-14.494 7.62 14.494 7.628c.377.201.51.654.316 1.026a.78.78 0 0 1-.672.401v-.01a.75.75 0 0 1-.358-.09L4.406 11.24c-.07-.04-.122-.08-.182-.13a1.5 1.5 0 0 1 0-2.13.6.6 0 0 1 .182-.132z"/></g><defs><clipPath id="a"><path fill="currentColor" d="M0 0h24v24H0z"/></clipPath></defs></svg>