<svg xmlns="http://www.w3.org/2000/svg" fill="currentColor" viewBox="0 0 24 24"><g fill="#212121"><path d="M5.813 9.25a.687.687 0 0 0 0 1.375H9.25v3.438a.687.687 0 1 0 1.375 0v-3.438h3.438a.687.687 0 0 0 0-1.375h-3.438V5.813a.687.687 0 1 0-1.375 0V9.25z"/><path fill-rule="evenodd" d="M15.851 16.823a8.99 8.99 0 0 1-12.216-.467 8.996 8.996 0 1 1 13.189-.506l5.975 5.976a.688.688 0 0 1-.973.973zM5.762 3.659a7.62 7.62 0 0 1 9.641 11.704l-.005.005-.033.034A7.621 7.621 0 1 1 5.762 3.659" clip-rule="evenodd"/></g></svg>