<svg xmlns="http://www.w3.org/2000/svg" width="24" height="24" fill="none" viewBox="0 0 24 24"><g fill="currentColor" clip-path="url(#a)"><path fill-rule="evenodd" d="M12.1 1c4.35 0 7.937 3.31 8.313 7.523h.278C22.385 8.523 23 10.085 23 12v2.74c0 1.915-.615 3.466-2.31 3.466h-.247c-.03 1.896-1.595 3.428-3.508 3.428h-1.467A2.125 2.125 0 0 1 13.476 23h-2.755c-1.179 0-2.13-.944-2.13-2.102 0-1.159.951-2.101 2.13-2.102h2.755c.912 0 1.695.57 1.992 1.365h1.467c1.11 0 2.022-.894 2.022-2.004v-.55a1.1 1.1 0 0 1-.367-.814V9.948c0-.334.139-.6.357-.806-.06-3.693-3.072-6.669-6.848-6.669S5.242 5.518 5.242 9.26a.3.3 0 0 1-.011.098c.109.167.18.364.18.59v6.845c-.001 1.08-1.458 1.413-1.875 1.413H3.31c-1.695 0-2.31-1.55-2.31-3.466V12c0-1.915.614-3.477 2.31-3.477h.226c.06 0 .15.01.248.03C4.151 4.33 7.75 1 12.1 1m-1.38 19.27a.64.64 0 0 0-.643.628c0 .343.287.629.643.629h2.755a.633.633 0 0 0 .645-.63.63.63 0 0 0-.645-.628zM3.31 9.995c-.981 0-1.011.904-1.011 2.004v2.74c0 1.1.03 1.993 1.011 1.993h.227c.12 0 .407-.088.566-.176v-6.374c-.159-.089-.447-.187-.566-.187zm17.144 0c-.119 0-.396.098-.555.186v6.375c.159.088.436.176.555.176h.238c.98 0 1.01-.893 1.01-1.993V12c0-1.1-.03-2.004-1.01-2.004z" clip-rule="evenodd"/><path d="M12.1 9.24c.276 0 .495.216.495.49v7.711a.49.49 0 0 1-.496.491.49.49 0 0 1-.495-.491v-7.71c0-.275.218-.491.495-.491m-2.606 1.542a.49.49 0 0 1 .496.491v4.626c0 .275-.219.49-.496.49a.49.49 0 0 1-.495-.49v-4.626c0-.275.218-.491.495-.491m5.203 0c.277 0 .495.216.495.491v4.626c0 .275-.218.49-.495.49a.49.49 0 0 1-.496-.49v-4.626c0-.275.218-.491.496-.491m-7.799 1.542c.277 0 .495.216.495.491v1.601c0 .275-.218.49-.495.491a.49.49 0 0 1-.496-.491v-1.6c0-.276.218-.492.496-.492m10.405 0c.277 0 .495.216.495.491v1.601c0 .275-.218.49-.495.491a.49.49 0 0 1-.496-.491v-1.6c0-.276.218-.492.496-.492"/></g><defs><clipPath id="a"><path fill="currentColor" d="M0 0h24v24H0z"/></clipPath></defs></svg>