<svg xmlns="http://www.w3.org/2000/svg" width="24" height="24" fill="none" viewBox="0 0 24 24"><g clip-path="url(#a)"><path stroke="currentColor" stroke-width="1.5" d="M12 2.75c5.808 0 10.25 3.785 10.25 8.135 0 4.215-4.17 7.905-9.71 8.132l-.54.011h-.002a12.3 12.3 0 0 1-3.435-.477l-.267-.076-.252.114-5.166 2.356 1.832-3.584.28-.547-.482-.381a7.3 7.3 0 0 1-2.01-2.482 7.2 7.2 0 0 1-.73-2.678l-.018-.4C1.758 6.536 6.197 2.75 12 2.75Z"/></g><defs><clipPath id="a"><path fill="currentColor" d="M0 0h24v24H0z"/></clipPath></defs></svg>