<svg xmlns="http://www.w3.org/2000/svg" width="24" height="24" fill="none" viewBox="0 0 24 24"><g fill="currentColor" clip-path="url(#a)"><path d="M2.576 2.576a.7.7 0 0 1 .486-.201h17.876a.687.687 0 0 1 .687.688v6.874a.687.687 0 1 0 1.375 0V3.064A2.06 2.06 0 0 0 20.938 1H3.063A2.063 2.063 0 0 0 1 3.063v13.75a2.063 2.063 0 0 0 2.063 2.062h.687v3.438a.688.688 0 0 0 1.1.55l4.1-3.071a.687.687 0 1 0-.824-1.1l-3.001 2.247v-2.751a.687.687 0 0 0-.687-.688H3.063a.687.687 0 0 1-.688-.687V3.063c0-.183.072-.358.201-.487"/><path d="M16.812 12a4.812 4.812 0 1 0 4.812 4.813.687.687 0 1 1 1.375 0 6.187 6.187 0 1 1-6.187-6.188.687.687 0 1 1 0 1.375"/><path d="M22.798 13.174a.688.688 0 0 0-.972-.973l-5.015 5.014-1.575-1.576a.688.688 0 1 0-.972.972l1.575 1.576a1.373 1.373 0 0 0 1.945 0z"/></g><defs><clipPath id="a"><path fill="currentColor" d="M0 0h24v24H0z"/></clipPath></defs></svg>