<svg xmlns="http://www.w3.org/2000/svg" width="24" height="24" fill="none" viewBox="0 0 24 24"><g clip-path="url(#a)"><path fill="currentColor" d="M21.05 4H2.96C1.88 4 1 4.88 1 5.97v12.06C1 19.12 1.88 20 2.96 20h18.09c1.08 0 1.95-.89 1.95-1.97V5.97C23 4.88 22.12 4 21.05 4m-.24 1.55-7.32 6.23c-.89.76-2.09.76-2.99 0L3.19 5.55h17.63zm.24 12.9H2.96c-.23 0-.42-.19-.42-.42V7.02l6.98 5.95c.73.62 1.61.93 2.48.93s1.75-.31 2.48-.93l6.98-5.95v11.01c0 .23-.19.42-.42.42z"/></g><defs><clipPath id="a"><path fill="currentColor" d="M0 0h24v24H0z"/></clipPath></defs></svg>