<svg width="24" height="24" viewBox="0 0 24 24" fill="none" xmlns="http://www.w3.org/2000/svg">
<g clip-path="url(#clip0_4549_496)">
<path d="M21.05 4H2.96C1.88 4 1 4.88 1 5.97V18.03C1 19.12 1.88 20 2.96 20H21.05C22.13 20 23 19.11 23 18.03V5.97C23 4.88 22.12 4 21.05 4ZM20.81 5.55L13.49 11.78C12.6 12.54 11.4 12.54 10.5 11.78L3.19 5.55H20.82H20.81ZM21.05 18.45H2.96C2.73 18.45 2.54 18.26 2.54 18.03V7.02L9.52 12.97C10.25 13.59 11.13 13.9 12 13.9C12.87 13.9 13.75 13.59 14.48 12.97L21.46 7.02V18.03C21.46 18.26 21.27 18.45 21.04 18.45H21.05Z" fill="#3C3B44"/>
</g>
<defs>
<clipPath id="clip0_4549_496">
<rect width="24" height="24" fill="white"/>
</clipPath>
</defs>
</svg>
