<svg xmlns="http://www.w3.org/2000/svg" width="24" height="24" fill="none" viewBox="0 0 24 24"><g clip-path="url(#a)"><path fill="currentColor" fill-rule="evenodd" d="M18.75 8.53c-.367-3.397-3.253-6.058-6.755-6.058a6.796 6.796 0 0 0-6.754 6.057c.544.034 2.022.396 2.022 1.42v6.84c0 1.08-1.64 1.423-2.1 1.423h-.688A3.48 3.48 0 0 1 1 14.738V12a3.48 3.48 0 0 1 2.755-3.398C4.094 4.356 7.663 1 11.995 1s7.9 3.355 8.24 7.6A3.48 3.48 0 0 1 23 12v2.738a3.48 3.48 0 0 1-2.73 3.393v.022a3.48 3.48 0 0 1-3.474 3.473H15.34A2.1 2.1 0 0 1 13.37 23h-2.74c-1.158 0-2.1-.942-2.1-2.1s.942-2.1 2.1-2.1h2.74c.895 0 1.662.564 1.964 1.354h1.462c1.08 0 1.97-.861 2.002-1.943-.51-.019-2.061-.372-2.061-1.422v-6.84c0-1.018 1.46-1.382 2.012-1.42m2.778 6.208a2.004 2.004 0 0 1-1.894 1.999.7.7 0 0 0-.218.003h-.578c-.128 0-.442-.098-.629-.187v-6.368c.177-.098.491-.187.629-.187h.687c1.11 0 2.003.903 2.003 2.002zM4.474 9.998c-1.1 0-2.002.893-2.002 2.002v2.738c0 1.099.893 2.002 2.002 2.002h.687c.138 0 .452-.089.629-.187v-6.368c-.177-.088-.501-.187-.629-.187zm5.527 10.892c0-.343.285-.628.629-.628h2.739c.343 0 .628.285.628.628a.626.626 0 0 1-.628.628h-2.74a.633.633 0 0 1-.628-.628" clip-rule="evenodd"/></g><defs><clipPath id="a"><path fill="currentColor" d="M0 0h24v24H0z"/></clipPath></defs></svg>