<svg xmlns="http://www.w3.org/2000/svg" width="24" height="24" fill="none" viewBox="0 0 24 24"><g clip-path="url(#a)"><path fill="currentColor" fill-rule="evenodd" d="M22.267 5c.405 0 .733.305.733.682v13.636c0 .377-.328.682-.733.682H1.733C1.328 20 1 19.695 1 19.318V5.682C1 5.305 1.328 5 1.733 5zm-8.136 8.203A3.95 3.95 0 0 1 11.75 14a3.94 3.94 0 0 1-2.38-.797L2.466 7.98v10.657h19.066V7.602zm-3.882-1.126a2.49 2.49 0 0 0 3.002.001l7.55-5.715H2.699z" clip-rule="evenodd"/></g><defs><clipPath id="a"><path fill="currentColor" d="M0 0h24v24H0z"/></clipPath></defs></svg>