<svg xmlns="http://www.w3.org/2000/svg" width="24" height="24" fill="none" viewBox="0 0 24 24"><g clip-path="url(#a)"><path fill="currentColor" d="M14.825 23.003c-.225 0-.45-.031-.676-.113a2.15 2.15 0 0 1-1.392-1.463l-1.975-8.217-8.188-1.965h-.03a2.1 2.1 0 0 1-1.29-1.012 2.15 2.15 0 0 1-.195-1.627 2.14 2.14 0 0 1 1.382-1.454L21.09 1.074a1.456 1.456 0 0 1 1.842 1.832l-6.07 18.613a2.16 2.16 0 0 1-2.036 1.474zM2.963 9.762l8.628 2.067a.77.77 0 0 1 .563.563l2.088 8.646a.59.59 0 0 0 .388.389.596.596 0 0 0 .768-.389l6.028-18.46L2.942 8.607a.6.6 0 0 0-.389.409.65.65 0 0 0 .051.46.62.62 0 0 0 .359.287"/></g><defs><clipPath id="a"><path fill="currentColor" d="M0 0h24v24H0z"/></clipPath></defs></svg>