<svg xmlns="http://www.w3.org/2000/svg" width="24" height="24" fill="none" viewBox="0 0 24 24"><g clip-path="url(#a)"><path fill="currentColor" d="M9.46 4.014c.279-.036.561-.003.823.097l.111.046.003.001a1.68 1.68 0 0 1 .975 1.522v1.803c1.89.006 5.493.362 8.218 2.742l.211.19c2.15 1.99 3.199 4.85 3.199 8.36v.012a1.23 1.23 0 0 1-.944 1.178 1.235 1.235 0 0 1-1.37-.604v-.003c-1.38-2.53-3.375-3.62-5.243-4.053-1.615-.373-3.139-.25-4.07-.1v2.337l-.005.121a1.68 1.68 0 0 1-.98 1.413 1.71 1.71 0 0 1-1.792-.228l-.009-.007-.008-.007-6.985-6.05a1.7 1.7 0 0 1-.584-1.097L1 11.505a1.68 1.68 0 0 1 .62-1.304l6.97-5.808.002-.002c.25-.206.551-.335.869-.376m.195 1.536a.2.2 0 0 0-.09.038l-6.974 5.81-.005.005h-.001a.14.14 0 0 0-.038.049.1.1 0 0 0-.012.051v.001q0 .026.01.05l.039.048.009.008 6.97 6.036a.2.2 0 0 0 .088.037.2.2 0 0 0 .1-.016.16.16 0 0 0 .067-.055.12.12 0 0 0 .02-.066v-2.803a1 1 0 0 1 .227-.628l.116-.121a1 1 0 0 1 .437-.224l.01-.003.01-.002c.943-.194 2.954-.474 5.147.032 1.957.452 4.053 1.533 5.635 3.823-.196-2.525-1.05-4.49-2.492-5.908l-.342-.316c-2.56-2.234-6.144-2.411-7.713-2.358l-.025.001h-.025a1.04 1.04 0 0 1-.637-.245l-.02-.017-.019-.018a1.02 1.02 0 0 1-.31-.687V5.684l-.004-.032a.1.1 0 0 0-.015-.033.16.16 0 0 0-.063-.054l-.048-.015a.2.2 0 0 0-.052 0"/></g><defs><clipPath id="a"><path fill="currentColor" d="M0 0h24v24H0z"/></clipPath></defs></svg>