<svg xmlns="http://www.w3.org/2000/svg" width="24" height="24" fill="none" viewBox="0 0 24 24"><g fill="currentColor" clip-path="url(#a)"><path d="M5.216 9.264a.696.696 0 0 1 .553.674v2.346a6.07 6.07 0 0 0 1.883 4.226 6.17 6.17 0 0 0 4.34 1.677H12c.904 0 1.79-.192 2.612-.55l-.009.01a.69.69 0 0 1 .914.348.683.683 0 0 1-.351.907 8 8 0 0 1-2.474.623v2.788A.695.695 0 0 1 12 23a.695.695 0 0 1-.693-.687v-2.769A7.47 7.47 0 0 1 6.692 17.5a7.4 7.4 0 0 1-2.307-5.188V9.938c0-.376.314-.688.692-.688z"/><path fill-rule="evenodd" d="M12 1a4.83 4.83 0 0 1 3.434 1.402c.452.45.803.981 1.052 1.568.25.586.37 1.21.37 1.843v5.5c.082 1.191-.26 2.392-.915 3.419l1.034 1.072c.323-.413.61-.843.813-1.32.295-.687.452-1.44.452-2.191V9.938c0-.376.314-.688.693-.688l.137.014a.696.696 0 0 1 .555.674v2.355a7.1 7.1 0 0 1-1.67 4.528l2.852 2.953-.01-.01a.68.68 0 0 1-.019.971.69.69 0 0 1-.978-.017L7.357 7.838 3.194 3.539a.68.68 0 0 1 .018-.972.69.69 0 0 1 .978.019l2.973 3.089c.018-.587.13-1.155.35-1.695q.375-.895 1.053-1.569a4.8 4.8 0 0 1 1.578-1.045C10.735 1.12 11.382 1.018 12 1m0 1.375c-.443-.037-.905.083-1.33.257a3.41 3.41 0 0 0-2.133 3.18v1.265l6.417 6.637c.388-.715.563-1.53.508-2.356V5.813q.002-.69-.259-1.32a3.4 3.4 0 0 0-1.874-1.861 3.5 3.5 0 0 0-1.33-.257" clip-rule="evenodd"/><path d="M7.837 10.625c.378 0 .692.312.692.688 0 1.173.25 1.98.572 2.547a2.84 2.84 0 0 0 1.21 1.156c.922.476 1.928.413 2.123.394a.693.693 0 0 1 .766.605.69.69 0 0 1-.61.76 5.5 5.5 0 0 1-2.675-.424l-.241-.116h-.01a4.3 4.3 0 0 1-1.772-1.687c-.47-.816-.748-1.87-.748-3.235 0-.376.314-.688.693-.688"/></g><defs><clipPath id="a"><path fill="currentColor" d="M0 0h24v24H0z"/></clipPath></defs></svg>