<svg xmlns="http://www.w3.org/2000/svg" width="24" height="24" fill="none" viewBox="0 0 24 24"><g fill="currentColor" fill-rule="evenodd" clip-path="url(#a)" clip-rule="evenodd"><path d="M21.758 1.704a.757.757 0 0 1 1.029 0 .676.676 0 0 1 0 .981L2.242 22.297a.74.74 0 0 1-.515.204.74.74 0 0 1-.514-.204.676.676 0 0 1 0-.982l4.996-4.768c-1.683-1.835-2.872-3.686-3.53-5.52-1-2.73-.534-5.601 1.202-7.49.223-.25.534-.491.825-.713l.446-.37.02-.017c.335-.284.748-.633 1.367-.742 1.59-.287 2.54 1.137 3.17 2.081l.001.002.098.139c.63.935 1.425 2.12 1.076 3.472-.184.732-.737 1.157-1.183 1.49l-.233.186c-.105.092-.226.176-.355.267l-.042.029c-.272.194-.583.417-.64.602-.192.64.355 1.47.573 1.803l.008.012q.428.639.915 1.219zM6.8 3.055c-.162.027-.319.133-.489.27l-.2.166-.493.407c-.262.204-.505.398-.65.556-1.368 1.49-1.737 3.898-.923 6.12.594 1.638 1.667 3.31 3.193 4.991l1.652-1.578c-.392-.455-.76-.945-1.1-1.46-.31-.462-1.125-1.685-.756-2.935.183-.635.72-1.023 1.156-1.337l.008-.005.043-.03c.1-.072.191-.138.276-.21.087-.075.185-.149.273-.214.33-.25.61-.463.678-.74.202-.771-.32-1.542-.83-2.295l-.013-.02-.05-.074-.096-.14c-.572-.86-1.106-1.574-1.679-1.472m9.76 10.723c1.49-.22 2.505.634 3.25 1.263l.018.014.514.426c.776.611 1.834 1.454 1.746 2.686-.067.816-.659 1.306-1.094 1.667l-.012.008-.087.075a7 7 0 0 0-.2.17q-.097.088-.197.172c-.282.26-.573.519-.903.732-1.086.676-2.377 1.018-3.842 1.018V22h-.28c-1.601-.046-2.853-.582-3.87-1.091-1.048-.528-2.038-1.195-3.027-2.037a.65.65 0 0 1-.242-.5c0-.195.077-.38.212-.51l2.775-2.611a.75.75 0 0 1 .951-.055c.562.407.99.573 1.3.509.359-.065.611-.316.999-.723.456-.472 1.028-1.064 1.988-1.203m.232 1.361c-.437.065-.718.334-1.135.769-.446.463-.951.981-1.785 1.139-.637.12-1.236-.055-1.74-.312l-.21-.114-1.785 1.676c.708.546 1.416 1 2.153 1.37.912.462 1.931.898 3.231.935 1.28.037 2.386-.232 3.288-.787.223-.139.457-.352.7-.574l.436-.389.096-.074c.369-.296.592-.5.612-.731.039-.51-.66-1.066-1.223-1.51l-.552-.453-.024-.02c-.613-.512-1.239-1.034-2.062-.925"/></g><defs><clipPath id="a"><path fill="currentColor" d="M0 0h24v24H0z"/></clipPath></defs></svg>