<svg xmlns="http://www.w3.org/2000/svg" width="24" height="24" fill="none" viewBox="0 0 24 24"><g fill="currentColor" clip-path="url(#a)"><path fill-rule="evenodd" d="M5.468 1.056c1.639-.31 2.614 1.228 3.263 2.25l.008.012.09.15c.648 1.012 1.466 2.294 1.107 3.756-.19.79-.758 1.251-1.217 1.612q-.06.052-.12.1t-.12.1c-.107.1-.232.19-.365.288l-.044.032c-.279.21-.598.451-.658.652-.196.692.366 1.59.591 1.949l.008.013a13.9 13.9 0 0 0 2.962 3.354l.01.009c.44.361 1.171.962 1.715.853.37-.07.629-.34 1.028-.78.468-.511 1.056-1.153 2.044-1.304 1.533-.238 2.576.687 3.343 1.367l.018.016.528.46c.798.661 1.885 1.573 1.795 2.904-.069.884-.677 1.413-1.125 1.802l-.012.011-.09.08c-.139.12-.279.25-.409.381l-.078.073c-.265.249-.54.507-.85.707-1.116.731-2.443 1.102-3.948 1.102l.01.01h-.3c-1.645-.05-2.931-.63-3.978-1.181-2.344-1.252-4.109-3.075-5.396-4.517-1.815-2.043-3.091-4.115-3.79-6.148C.481 8.205.95 5.09 2.736 3.048c.239-.27.548-.531.857-.791l.45-.381.019-.018c.345-.307.77-.685 1.406-.802m.28 1.471c-.23.04-.45.24-.699.471l-.499.42a6.4 6.4 0 0 0-.688.621c-1.416 1.612-1.785 4.216-.947 6.62.638 1.852 1.815 3.744 3.5 5.647 1.277 1.431 2.863 3.055 4.977 4.186.937.5 1.985.97 3.321 1.01 1.306.05 2.454-.249 3.38-.85.23-.15.47-.38.719-.62.15-.141.3-.282.459-.422l.088-.08c.38-.33.61-.54.63-.79.039-.556-.665-1.14-1.24-1.619l-.017-.014-.569-.49c-.638-.572-1.297-1.142-2.144-1.022-.449.07-.738.36-1.166.83-.459.501-.978 1.063-1.835 1.233-1.238.249-2.309-.628-2.958-1.16l-.015-.012a15.4 15.4 0 0 1-3.28-3.715c-.32-.5-1.157-1.823-.779-3.174.19-.691.749-1.112 1.208-1.453q.089-.072.181-.138.078-.057.148-.112c.09-.08.19-.16.279-.23v-.001c.34-.27.627-.5.697-.8.205-.822-.314-1.644-.822-2.448l-.035-.056-.15-.24c-.523-.817-.994-1.51-1.511-1.594l-.104-.008h-.01c-.007 0-.082 0-.12.01" clip-rule="evenodd"/><path d="m12.798 1.256.01.01c5.615.01 10.172 4.576 10.172 10.213a.824.824 0 0 1-.818.822.823.823 0 0 1-.817-.822c-.01-4.736-3.83-8.582-8.547-8.582a.824.824 0 0 1-.818-.82c0-.451.37-.821.818-.821"/><path d="M12.808 4.53c3.81 0 6.91 3.104 6.91 6.94 0 .45-.368.82-.817.82a.823.823 0 0 1-.818-.82c0-2.924-2.363-5.308-5.285-5.308l.01.01a.823.823 0 0 1-.818-.821c0-.45.37-.82.818-.82"/></g><defs><clipPath id="a"><path fill="currentColor" d="M0 0h24v24H0z"/></clipPath></defs></svg>