<svg xmlns="http://www.w3.org/2000/svg" width="24" height="24" fill="none" viewBox="0 0 24 24"><g clip-path="url(#a)"><path fill="currentColor" d="M16.33 23h-.297c-1.686-.05-3.004-.63-4.078-1.192-2.391-1.251-4.21-3.074-5.529-4.516-1.86-2.042-3.168-4.105-3.884-6.148C1.5 8.19 1.98 5.076 3.81 3.034c.245-.271.562-.531.879-.782l.46-.38c.357-.31.797-.701 1.461-.831C8.286.73 9.288 2.272 9.952 3.294l.102.15c.665 1.011 1.503 2.293 1.135 3.755-.194.79-.777 1.251-1.247 1.612-.082.07-.164.13-.245.2-.123.11-.266.21-.42.32-.285.21-.613.451-.674.652-.204.7.389 1.612.613 1.962a14.2 14.2 0 0 0 3.036 3.365c.45.36 1.206.971 1.768.86.378-.07.644-.34 1.053-.78.48-.51 1.083-1.152 2.095-1.302 1.574-.24 2.657.701 3.444 1.382l.542.46c.817.661 1.942 1.573 1.84 2.904-.072.892-.706 1.422-1.166 1.813l-.092.08c-.143.12-.276.25-.419.37-.296.28-.603.561-.95.781-1.145.732-2.504 1.102-4.047 1.102zM6.896 2.513c-.235.04-.46.24-.725.47l-.511.42c-.266.211-.542.431-.695.612-1.452 1.612-1.83 4.215-.971 6.618.654 1.853 1.86 3.755 3.587 5.648 1.308 1.432 2.933 3.054 5.1 4.186.96.5 2.034.97 3.403 1.011 1.36.05 2.515-.25 3.465-.851.235-.15.48-.38.736-.621l.46-.42.092-.08c.388-.331.623-.541.644-.792.04-.56-.695-1.151-1.288-1.642l-.583-.49c-.654-.561-1.328-1.142-2.197-1.022-.46.07-.756.36-1.196.831-.47.5-.991 1.062-1.88 1.232-1.267.25-2.382-.641-3.046-1.172C9.973 15.4 8.88 14.178 7.93 12.736c-.327-.5-1.186-1.822-.798-3.174.195-.691.767-1.112 1.237-1.452.112-.09.235-.17.337-.25.092-.08.195-.15.287-.23.347-.271.643-.501.715-.802.215-.84-.348-1.692-.89-2.503l-.153-.24c-.603-.932-1.154-1.703-1.768-1.593z"/></g><defs><clipPath id="a"><path fill="currentColor" d="M0 0h24v24H0z"/></clipPath></defs></svg>