<svg xmlns="http://www.w3.org/2000/svg" width="24" height="24" fill="none" viewBox="0 0 24 24"><g fill="currentColor" clip-path="url(#a)"><path fill-rule="evenodd" d="M5.468 1.055C7.113.745 8.09 2.297 8.739 3.319l.09.149c.647 1.011 1.465 2.294 1.106 3.756-.19.79-.758 1.252-1.216 1.612-.08.07-.16.13-.24.2-.12.11-.26.21-.409.32-.279.21-.598.45-.658.651-.2.7.38 1.612.599 1.963a13.9 13.9 0 0 0 2.962 3.354c.438.36 1.177.972 1.725.862.37-.07.629-.341 1.027-.781.47-.511 1.057-1.152 2.045-1.302 1.545-.24 2.593.7 3.36 1.382l.53.46c.797.661 1.884 1.573 1.794 2.905-.07.89-.688 1.422-1.137 1.812l-.09.08c-.14.12-.28.25-.409.38-.289.27-.588.561-.927.782-1.116.73-2.444 1.101-3.95 1.101l.011.01h-.3c-1.645-.05-2.931-.631-3.978-1.182-2.344-1.251-4.11-3.073-5.396-4.515-1.815-2.043-3.092-4.116-3.79-6.149C.481 8.205.95 5.091 2.735 3.048c.24-.27.549-.53.858-.791l.449-.38c.349-.311.778-.702 1.426-.822m.279 1.473c-.23.04-.449.24-.698.47l-.5.42c-.258.21-.527.441-.687.621-1.416 1.612-1.785 4.216-.947 6.62.638 1.852 1.815 3.744 3.5 5.647 1.276 1.432 2.862 3.054 4.977 4.185.937.501 1.985.972 3.32 1.012 1.307.05 2.454-.25 3.382-.851.229-.15.468-.38.717-.62.15-.14.3-.281.46-.422l.088-.08c.38-.33.61-.54.63-.79.04-.561-.68-1.153-1.258-1.633l-.568-.49c-.638-.571-1.297-1.142-2.145-1.022-.448.07-.737.36-1.166.831-.458.5-.977 1.061-1.835 1.231-1.246.25-2.324-.64-2.972-1.17a15.4 15.4 0 0 1-3.28-3.716c-.32-.501-1.158-1.822-.779-3.174.19-.691.749-1.112 1.207-1.452.11-.09.23-.17.33-.25.09-.08.189-.16.279-.23.339-.27.627-.501.697-.802.21-.84-.339-1.682-.857-2.503l-.15-.24c-.524-.817-.995-1.511-1.512-1.594l-.103-.01h-.01a1 1 0 0 0-.12.012" clip-rule="evenodd"/><path d="M15.848 1.104a.674.674 0 0 1 .9.167c.2.28.119.66-.179.848l-1.894 1.196 3.795-.002C20.985 3.319 23 4.646 23 7.368c0 1.778-1.5 3.723-4.802 3.723H17c-.358 0-.648-.274-.648-.611 0-.338.29-.612.648-.612h1.198c3.302 0 3.504-1.722 3.504-2.5 0-2.222-1.44-2.833-3.244-2.833H14.61l2 1.485c.282.209.33.593.108.858a.676.676 0 0 1-.911.102l-3.56-2.644A.6.6 0 0 1 12 3.832a.6.6 0 0 1 .288-.483z"/></g><defs><clipPath id="a"><path fill="currentColor" d="M0 0h24v24H0z"/></clipPath></defs></svg>