<svg width="24" height="24" viewBox="0 0 24 24" fill="none" xmlns="http://www.w3.org/2000/svg">
<g clip-path="url(#clip0_5734_990)">
<path d="M8.81022 3.8386C10.5009 3.19265 12.3479 3.07522 14.1068 3.50186C15.8657 3.92849 17.4536 4.87907 18.6604 6.22784C18.9136 6.5108 18.8895 6.94543 18.6065 7.19861C18.3236 7.4518 17.8889 7.42767 17.6357 7.14471C16.6146 6.00344 15.2709 5.1991 13.7827 4.83811C12.2943 4.47711 10.7315 4.57648 9.30096 5.12304C7.87038 5.66961 6.63944 6.63763 5.771 7.89904C5.10163 8.8713 4.67193 9.98254 4.51009 11.1422L5.32636 10.3259C5.59485 10.0574 6.03015 10.0574 6.29864 10.3259C6.56712 10.5944 6.56712 11.0297 6.29864 11.2982L4.27246 13.3244C4.14636 13.4716 3.95908 13.565 3.75 13.565C3.54092 13.565 3.35364 13.4716 3.22754 13.3244L1.20136 11.2982C0.932879 11.0297 0.932879 10.5944 1.20136 10.3259C1.46985 10.0574 1.90515 10.0574 2.17364 10.3259L3.11047 11.2627C3.26467 9.78041 3.7878 8.35489 4.63846 7.11931C5.66479 5.62857 7.11953 4.48454 8.81022 3.8386Z" fill="#3C3B44"/>
<path fill-rule="evenodd" clip-rule="evenodd" d="M9.89341 10.0809C10.4521 9.52221 11.2099 9.20833 12 9.20833C12.7901 9.20833 13.5479 9.52221 14.1066 10.0809C14.6653 10.6396 14.9792 11.3974 14.9792 12.1875C14.9792 12.9776 14.6653 13.7354 14.1066 14.2941C13.5479 14.8528 12.7901 15.1667 12 15.1667C11.2099 15.1667 10.4521 14.8528 9.89341 14.2941C9.33471 13.7354 9.02083 12.9776 9.02083 12.1875C9.02083 11.3974 9.33471 10.6396 9.89341 10.0809ZM12 10.5833C11.5745 10.5833 11.1665 10.7523 10.8657 11.0532C10.5648 11.354 10.3958 11.762 10.3958 12.1875C10.3958 12.613 10.5648 13.021 10.8657 13.3218C11.1665 13.6227 11.5745 13.7917 12 13.7917C12.4255 13.7917 12.8335 13.6227 13.1343 13.3218C13.4352 13.021 13.6042 12.613 13.6042 12.1875C13.6042 11.762 13.4352 11.354 13.1343 11.0532C12.8335 10.7523 12.4255 10.5833 12 10.5833Z" fill="#3C3B44"/>
<path d="M21.8264 14.0482L20.8896 13.1114C20.7355 14.5943 20.2122 16.0204 19.3611 17.2564C18.3347 18.7471 16.88 19.8909 15.1893 20.5367C13.4987 21.1825 11.6518 21.2999 9.89299 20.8732C8.13418 20.4466 6.54635 19.496 5.33954 18.1472C5.08636 17.8643 5.11051 17.4296 5.39347 17.1765C5.67644 16.9233 6.11107 16.9474 6.36425 17.2304C7.38538 18.3717 8.72892 19.176 10.2171 19.5369C11.7053 19.898 13.2681 19.7987 14.6987 19.2523C16.1292 18.7057 17.3601 17.7379 18.2286 16.4766C18.8984 15.5039 19.3283 14.392 19.4901 13.2318L18.6736 14.0482C18.4052 14.3167 17.9698 14.3167 17.7014 14.0482C17.4329 13.7797 17.4329 13.3444 17.7014 13.0759L19.7639 11.0134C20.0323 10.7449 20.4677 10.7449 20.7361 11.0134L22.7986 13.0759C23.0671 13.3444 23.0671 13.7797 22.7986 14.0482C22.5302 14.3167 22.0948 14.3167 21.8264 14.0482Z" fill="#3C3B44"/>
</g>
<defs>
<clipPath id="clip0_5734_990">
<rect width="24" height="24" fill="white"/>
</clipPath>
</defs>
</svg>
