<svg xmlns="http://www.w3.org/2000/svg" width="24" height="24" fill="none" viewBox="0 0 24 24"><g fill="currentColor" clip-path="url(#a)"><path d="M8.81 3.839a8.94 8.94 0 0 1 9.85 2.389.687.687 0 1 1-1.024.917A7.562 7.562 0 0 0 4.51 11.142l.816-.816a.687.687 0 1 1 .973.972l-2.027 2.026a.686.686 0 0 1-1.044 0L1.2 11.298a.688.688 0 0 1 .973-.972l.936.937a8.94 8.94 0 0 1 5.7-7.424"/><path fill-rule="evenodd" d="M9.893 10.08a2.98 2.98 0 1 1 4.214 4.214 2.98 2.98 0 0 1-4.214-4.213m2.107.503a1.604 1.604 0 1 0 0 3.208 1.604 1.604 0 0 0 0-3.208" clip-rule="evenodd"/><path d="m21.826 14.048-.936-.937a8.938 8.938 0 0 1-15.55 5.036.687.687 0 1 1 1.024-.917 7.56 7.56 0 0 0 13.126-3.998l-.816.816a.687.687 0 1 1-.973-.972l2.063-2.063a.687.687 0 0 1 .972 0l2.063 2.063a.688.688 0 0 1-.973.972"/></g><defs><clipPath id="a"><path fill="currentColor" d="M0 0h24v24H0z"/></clipPath></defs></svg>