<svg xmlns="http://www.w3.org/2000/svg" width="24" height="24" fill="none" viewBox="0 0 24 24"><g fill="currentColor" fill-rule="evenodd" clip-path="url(#a)" clip-rule="evenodd"><path d="M9.6 6.004a6.536 6.536 0 0 1 8.887 4.655l.022.107A6.533 6.533 0 1 1 9.6 6.004m1.813.924a5.16 5.16 0 0 0-4.47 5.112 5.159 5.159 0 0 0 8.756 3.696l-4.02-3.152-.266-.55zm2.255 5.467 2.88 2.258a5.15 5.15 0 0 0 .692-3.056zm-.879-1.213 4.152-.927a5.16 5.16 0 0 0-4.152-3.327z"/><path d="M14.983 1.06a2.484 2.484 0 0 1 3.021 2.543v.002l-.066 1.285a1.11 1.11 0 0 0 1.048 1.164h.113l1.283-.067a2.486 2.486 0 0 1 2.555 3.024c-.112.5-.377.953-.757 1.298l-.956.863a1.1 1.1 0 0 0-.364.765 1.1 1.1 0 0 0 .284.8l.076.076.004.003.955.863a2.485 2.485 0 0 1-1.788 4.326l-1.284-.066a1.11 1.11 0 0 0-1.164 1.037v.146l.065 1.266a2.483 2.483 0 0 1-4.325 1.793l-.862-.956a1.11 1.11 0 0 0-1.65.005l-.862.95-.001.002a2.484 2.484 0 0 1-4.325-1.793l.066-1.283a1.113 1.113 0 0 0-1.04-1.163h-.146l-1.273.066a2.484 2.484 0 0 1-1.775-4.317l.002-.003.957-.86a1.11 1.11 0 0 0-.006-1.651l-.95-.86a2.486 2.486 0 0 1 .336-3.94 2.5 2.5 0 0 1 1.45-.384h.003l1.284.067a1.11 1.11 0 0 0 1.165-1.052v-.121L5.993 3.6a2.483 2.483 0 0 1 4.31-1.786l.003.001.87.954a1.11 1.11 0 0 0 1.566.08l.001-.001q.041-.037.078-.077l.001-.001.862-.957.003-.001a2.5 2.5 0 0 1 1.296-.752m.298 1.342c-.222.05-.423.166-.577.334v.001l-.86.952a2.485 2.485 0 0 1-3.687.003l-.002-.002-.864-.945a1.11 1.11 0 0 0-1.75.153 1.1 1.1 0 0 0-.174.642l.062 1.278q.008.131 0 .262A2.486 2.486 0 0 1 4.82 7.435l-1.282-.067a1.11 1.11 0 0 0-1.078.684 1.11 1.11 0 0 0 .28 1.246l.956.865.174.174a2.485 2.485 0 0 1-.175 3.512l-.953.859v.002a1.109 1.109 0 0 0 .79 1.925l1.279-.066h.254a2.487 2.487 0 0 1 2.358 2.359v.248l-.066 1.283a1.11 1.11 0 0 0 1.93.8l.001-.001.874-.963.171-.171a2.487 2.487 0 0 1 3.509.18l.862.955a1.11 1.11 0 0 0 1.93-.8l-.066-1.284v-.254a2.486 2.486 0 0 1 2.609-2.356l1.283.066a1.11 1.11 0 0 0 .798-1.93l-.952-.86-.185-.184a2.483 2.483 0 0 1 .18-3.507l.956-.86a1.11 1.11 0 0 0-.632-1.925l-.17-.005-1.281.067h-.26a2.485 2.485 0 0 1-2.35-2.609l.066-1.282a1.11 1.11 0 0 0-1.349-1.134"/></g><defs><clipPath id="a"><path fill="currentColor" d="M0 0h24v24H0z"/></clipPath></defs></svg>