<svg width="24" height="24" viewBox="0 0 24 24" fill="none" xmlns="http://www.w3.org/2000/svg">
<g clip-path="url(#clip0_4879_276)">
<path fill-rule="evenodd" clip-rule="evenodd" d="M12 1C14.9174 1 17.7154 2.15878 19.7783 4.22168C21.8412 6.28458 23 9.08262 23 12C23 14.9174 21.8412 17.7154 19.7783 19.7783C17.7154 21.8412 14.9174 23 12 23C9.08262 23 6.28458 21.8412 4.22168 19.7783C2.15878 17.7154 1 14.9174 1 12C1 9.08262 2.15878 6.28458 4.22168 4.22168C6.28458 2.15878 9.08262 1 12 1ZM5.69727 19.2744C7.44109 20.7853 9.67744 21.625 12 21.625C14.5527 21.625 17.0006 20.6107 18.8057 18.8057C20.3454 17.266 21.3094 15.2585 21.5596 13.1172L21.6006 12.6875H12.2852L5.69727 19.2744ZM11.3125 2.39941C9.01108 2.56413 6.83663 3.55204 5.19434 5.19434C3.3893 6.99937 2.375 9.44729 2.375 12C2.375 14.3226 3.21471 16.5589 4.72559 18.3027L11.3125 11.7148V2.39941ZM12.6875 11.3125H21.6006C21.4359 9.01108 20.448 6.83663 18.8057 5.19434C17.1634 3.55204 14.9889 2.56413 12.6875 2.39941V11.3125Z" fill="#3C3B44"/>
</g>
<defs>
<clipPath id="clip0_4879_276">
<rect width="24" height="24" fill="white"/>
</clipPath>
</defs>
</svg>
