<svg xmlns="http://www.w3.org/2000/svg" width="24" height="24" fill="none" viewBox="0 0 24 24"><g fill="currentColor" clip-path="url(#a)"><path d="M16.908 11.345c.362 0 .655.293.656.655a.66.66 0 0 1-.656.655H7.092A.653.653 0 0 1 6.446 12a.66.66 0 0 1 .646-.655z"/><path fill-rule="evenodd" d="M12 1c6.062 0 11 4.938 11 11s-4.938 11-11 11S1 18.072 1 12 5.938 1 12 1m0 1.467c-5.26 0-9.533 4.272-9.533 9.533S6.74 21.533 12 21.533 21.533 17.26 21.533 12 17.26 2.467 12 2.467" clip-rule="evenodd"/></g><defs><clipPath id="a"><path fill="currentColor" d="M0 0h24v24H0z"/></clipPath></defs></svg>