<svg width="24" height="24" viewBox="0 0 24 24" fill="none" xmlns="http://www.w3.org/2000/svg">
<g clip-path="url(#clip0_4929_460)">
<path d="M16.9082 11.3446C17.27 11.3446 17.5634 11.6381 17.5635 11.9999C17.5635 12.3617 17.2602 12.6552 16.9082 12.6552H7.0918C6.73002 12.6552 6.44629 12.3519 6.44629 11.9999C6.44633 11.6479 6.73982 11.3446 7.0918 11.3446H16.9082Z" fill="#3C3B44"/>
<path fill-rule="evenodd" clip-rule="evenodd" d="M12 0.999878C18.0622 0.999878 23 5.93766 23 11.9999C23 18.0621 18.0622 22.9999 12 22.9999C5.93778 22.9999 1 18.0719 1 11.9999C1 5.92788 5.93778 0.999878 12 0.999878ZM12 2.46667C6.73956 2.46667 2.4668 6.73943 2.4668 11.9999C2.4668 17.2603 6.73956 21.5331 12 21.5331C17.2604 21.5331 21.5332 17.2603 21.5332 11.9999C21.5332 6.73943 17.2604 2.46667 12 2.46667Z" fill="#3C3B44"/>
</g>
<defs>
<clipPath id="clip0_4929_460">
<rect width="24" height="24" fill="white"/>
</clipPath>
</defs>
</svg>
