<svg xmlns="http://www.w3.org/2000/svg" width="24" height="24" fill="none" viewBox="0 0 24 24"><g fill="currentColor" clip-path="url(#a)"><path d="M12.01 6.407c.361 0 .655.294.655.656v4.243h4.243a.655.655 0 0 1 0 1.31h-4.243v4.331a.655.655 0 0 1-1.31 0v-4.33H7.11a.655.655 0 0 1 0-1.311h4.244V7.063a.65.65 0 0 1 .655-.656"/><path fill-rule="evenodd" d="M12 1c6.062 0 11 4.938 11 11s-4.938 11-11 11S1 18.062 1 12 5.938 1 12 1m0 1.467C6.74 2.467 2.467 6.74 2.467 12S6.74 21.533 12 21.533 21.533 17.26 21.533 12 17.26 2.467 12 2.467" clip-rule="evenodd"/></g><defs><clipPath id="a"><path fill="currentColor" d="M0 0h24v24H0z"/></clipPath></defs></svg>