<svg xmlns="http://www.w3.org/2000/svg" width="24" height="24" fill="none" viewBox="0 0 24 24"><g fill="currentColor" clip-path="url(#a)"><path d="M22.25 19.416c.414 0 .75.355.75.792s-.336.792-.75.792H1.75c-.414 0-.75-.355-.75-.792s.336-.792.75-.792zm-7.936-8.708c.378 0 .686.354.686.791s-.307.792-.687.792H1.688c-.38 0-.687-.354-.687-.792 0-.437.308-.79.687-.79zM8.23 2c.425 0 .77.355.77.792a.78.78 0 0 1-.77.791H1.77a.78.78 0 0 1-.77-.79C1 2.354 1.345 2 1.77 2z"/></g><defs><clipPath id="a"><path fill="currentColor" d="M0 0h24v24H0z"/></clipPath></defs></svg>