<svg width="24" height="24" viewBox="0 0 24 24" fill="none" xmlns="http://www.w3.org/2000/svg">
<g clip-path="url(#clip0_4879_391)">
<path d="M8.23047 20.333C8.65516 20.333 8.99976 20.706 9 21.166C9 21.6263 8.6553 22 8.23047 22H1.76953C1.3447 22 1 21.6263 1 21.166C1.00024 20.706 1.34484 20.333 1.76953 20.333H8.23047Z" fill="#3C3B44"/>
<path d="M14.3135 11.167C14.6924 11.167 14.9999 11.5398 15 12C15 12.4602 14.6925 12.834 14.3135 12.834H1.68652C1.3075 12.834 1 12.4602 1 12C1.00008 11.5398 1.30755 11.167 1.68652 11.167H14.3135Z" fill="#3C3B44"/>
<path d="M22.25 2C22.6641 2 22.9998 2.37292 23 2.83301C23 3.29325 22.6642 3.66699 22.25 3.66699H1.75C1.33579 3.66699 1 3.29325 1 2.83301C1.00016 2.37292 1.33588 2 1.75 2H22.25Z" fill="#3C3B44"/>
</g>
<defs>
<clipPath id="clip0_4879_391">
<rect width="24" height="24" fill="white"/>
</clipPath>
</defs>
</svg>
