<svg xmlns="http://www.w3.org/2000/svg" width="24" height="24" fill="none" viewBox="0 0 24 24"><g fill="currentColor" clip-path="url(#a)"><path d="M8.23 20.333c.425 0 .77.373.77.833S8.655 22 8.23 22H1.77c-.425 0-.77-.374-.77-.834s.345-.833.77-.833zm6.084-9.166c.378 0 .686.373.686.833s-.307.834-.687.834H1.688C1.307 12.834 1 12.46 1 12s.308-.833.687-.833zM22.25 2c.414 0 .75.373.75.833s-.336.834-.75.834H1.75c-.414 0-.75-.374-.75-.834S1.336 2 1.75 2z"/></g><defs><clipPath id="a"><path fill="currentColor" d="M0 0h24v24H0z"/></clipPath></defs></svg>