<svg xmlns="http://www.w3.org/2000/svg" width="24" height="24" fill="none" viewBox="0 0 24 24"><g fill="currentColor" clip-path="url(#a)"><path d="M5.453 1c.433 0 .785.336.785.75v18.69l2.325-2.22a.813.813 0 0 1 1.111 0 .726.726 0 0 1 0 1.06l-3.666 3.5a.8.8 0 0 1-.596.219.8.8 0 0 1-.515-.219l-3.667-3.5a.726.726 0 0 1 0-1.06.813.813 0 0 1 1.111 0l2.325 2.22V1.75c0-.414.353-.75.787-.75"/><path fill-rule="evenodd" d="M17.887 4.549c.855 0 1.615.522 1.885 1.297l2.027 5.805.013.037 1.147 3.286c.138.393-.085.818-.497.949-.411.13-.855-.082-.993-.475l-.974-2.79H15.28l-.975 2.79c-.137.393-.582.606-.994.475a.743.743 0 0 1-.496-.95l1.148-3.288.01-.03 2.03-5.81c.27-.773 1.028-1.296 1.883-1.296m0 1.5a.41.41 0 0 0-.393.27l-1.689 4.838h4.165L18.28 6.32a.41.41 0 0 0-.393-.27" clip-rule="evenodd"/></g><defs><clipPath id="a"><path fill="currentColor" d="M0 0h24v24H0z"/></clipPath></defs></svg>