<svg xmlns="http://www.w3.org/2000/svg" fill="currentColor" viewBox="0 0 24 24"><path fill="currentColor" fill-rule="evenodd" d="M4.909 1.582a.71.71 0 0 1 .84-.568.72.72 0 0 1 .563.568c.334 1.722 1.68 3.088 3.332 3.425a.72.72 0 0 1 .563.847.72.72 0 0 1-.563.568c-1.652.336-2.988 1.693-3.332 3.425a.715.715 0 0 1-1.403 0c-.334-1.722-1.68-3.089-3.332-3.425a.72.72 0 0 1 0-1.415c1.652-.337 2.988-1.693 3.332-3.425m6.339 2.482c.897.972.85 2.492-.105 3.397a2.35 2.35 0 0 1-1.165.606c-.974.192-1.814 1.02-2.014 2.098-.258 1.299-1.509 2.155-2.797 1.895a2.34 2.34 0 0 1-1.318-.76v5.12a2.397 2.397 0 0 0 2.387 2.405h6.702c.133 0 .257.057.353.154l3.227 3.55c.888.972 2.491.337 2.491-.972v-2.723h1.604A2.397 2.397 0 0 0 23 16.43V6.48a2.397 2.397 0 0 0-2.387-2.405h-9.346z" clip-rule="evenodd"/></svg>