<svg xmlns="http://www.w3.org/2000/svg" width="24" height="24" fill="none" viewBox="0 0 24 24"><g clip-path="url(#a)"><path fill="currentColor" d="M17.598 7.617h-4.745V3.844A.84.84 0 0 0 12.005 3a.85.85 0 0 0-.858.844v3.773H6.412C1.06 7.617 1 11.787 1 11.827v4.954C1 20.116 4.534 21 6.412 21h11.186C22.94 21 23 16.82 23 16.78v-4.954c0-3.336-3.534-4.21-5.402-4.21m-.878 6.036v1.32a.99.99 0 0 1-1.01.993.99.99 0 0 1-1.01-.992v-1.32a1 1 0 0 1 1.01-.994 1 1 0 0 1 1.01.993m-7.42 0v1.32a1 1 0 0 1-1.01.993 1 1 0 0 1-1.01-.992v-1.32a.99.99 0 0 1 1.01-.994.99.99 0 0 1 1.01.993"/></g><defs><clipPath id="a"><path fill="currentColor" d="M0 0h24v24H0z"/></clipPath></defs></svg>