<svg xmlns="http://www.w3.org/2000/svg" width="24" height="24" fill="none" viewBox="0 0 24 24"><g fill="currentColor" clip-path="url(#a)"><path d="M10.987 9.16c.41-.433 1.09-.422 1.51 0s.42 1.123 0 1.556l-9.671 9.96a1.04 1.04 0 0 1-1.51 0 1.12 1.12 0 0 1 0-1.555zM18.8 2.002c.14.01.29.082.39.185s.17.247.19.402a.73.73 0 0 1-.101.432c-.82 1.308-.79 3.08.11 4.408a.72.72 0 0 1 .11.433.7.7 0 0 1-.18.412.62.62 0 0 1-.81.093c-1.32-.875-3.03-.855-4.28.031a.67.67 0 0 1-.42.113.66.66 0 0 1-.401-.185.66.66 0 0 1-.19-.401.66.66 0 0 1 .1-.433c.82-1.308.79-3.08-.11-4.41a.72.72 0 0 1-.11-.432.7.7 0 0 1 .18-.411.624.624 0 0 1 .81-.093h.01c1.32.875 3.031.855 4.282-.031a.67.67 0 0 1 .42-.113m3.94 2.038c.06.011.11.032.15.073s.07.093.07.154a.3.3 0 0 1-.04.165c-.31.495-.3 1.164.04 1.659.03.051.04.103.04.165a.27.27 0 0 1-.07.154.2.2 0 0 1-.15.072c-.06 0-.11-.01-.16-.04-.5-.33-1.14-.32-1.61.009-.05.03-.1.042-.16.042a.26.26 0 0 1-.15-.072.22.22 0 0 1-.07-.155c0-.061.01-.113.04-.165.31-.494.3-1.164-.04-1.658a.3.3 0 0 1-.04-.165.27.27 0 0 1 .07-.154.2.2 0 0 1 .15-.073c.057 0 .151.038.16.041.5.33 1.14.32 1.61-.01.05-.03.1-.041.16-.041m-11.003.402c.04 0 .07.01.1.041.03.03.05.062.05.103.01.04 0 .082-.02.113-.2.33-.2.773.03 1.102.03.042.03.073.03.114 0 .04-.01.071-.04.102s-.06.052-.1.052-.08-.01-.11-.03a.93.93 0 0 0-1.07 0c-.04.03-.07.03-.11.03s-.07-.01-.1-.041c-.03-.03-.05-.062-.05-.103-.01-.04 0-.082.02-.113.2-.33.2-.773-.03-1.102-.03-.041-.03-.073-.03-.114 0-.04.01-.072.04-.103.03-.03.06-.05.1-.05.038 0 .105.027.11.03h.01c.33.226.76.226 1.07 0 .03-.031.06-.03.1-.03"/></g><defs><clipPath id="a"><path fill="currentColor" d="M0 0h24v24H0z"/></clipPath></defs></svg>