<svg xmlns="http://www.w3.org/2000/svg" width="24" height="24" fill="none" viewBox="0 0 24 24"><g fill="currentColor" clip-path="url(#a)"><path fill-rule="evenodd" d="M9.207 5.758c1.925 0 3.5 1.584 3.501 3.52a3.53 3.53 0 0 1-1.795 3.07 5.51 5.51 0 0 1 3.77 5.232c0 .411-.34.752-.748.752H4.48a.755.755 0 0 1-.748-.752 5.51 5.51 0 0 1 3.767-5.231 3.53 3.53 0 0 1-1.792-3.072c0-1.935 1.576-3.519 3.5-3.52m-.01 7.821c-1.944 0-3.55 1.404-3.909 3.25h7.818c-.349-1.846-1.964-3.25-3.909-3.25m.01-6.327a2.01 2.01 0 0 0-2.004 2.016 2.01 2.01 0 0 0 2.004 2.015 2.01 2.01 0 0 0 2.005-2.015 2.01 2.01 0 0 0-2.005-2.016" clip-rule="evenodd"/><path d="M19.52 11.242c.408 0 .748.342.748.753s-.34.752-.748.752h-4.08a.756.756 0 0 1-.748-.752c0-.411.34-.753.748-.753zm.02-2.747c.408 0 .747.341.747.752s-.34.752-.748.752H15.44a.755.755 0 0 1-.748-.752c0-.411.34-.752.748-.752z"/><path fill-rule="evenodd" d="M20.886 3C22.053 3 23 3.953 23 5.126v13.748A2.12 2.12 0 0 1 20.886 21H3.114A2.12 2.12 0 0 1 1 18.874V5.126C1 3.953 1.947 3 3.114 3zM3.114 4.504a.623.623 0 0 0-.618.622v13.748c0 .341.28.622.618.622h17.772a.623.623 0 0 0 .618-.622V5.126a.623.623 0 0 0-.618-.622z" clip-rule="evenodd"/></g><defs><clipPath id="a"><path fill="currentColor" d="M0 0h24v24H0z"/></clipPath></defs></svg>