<svg xmlns="http://www.w3.org/2000/svg" width="24" height="24" fill="none" viewBox="0 0 24 24"><g fill="currentColor" fill-rule="evenodd" clip-path="url(#a)" clip-rule="evenodd"><path d="M12.236 8.691c2.371.122 4.244 2.103 4.244 4.512 0 2.19-1.546 4.025-3.607 4.433a7.04 7.04 0 0 1 5.508 4.05.75.75 0 0 1-1.362.628c-1.3-2.811-4.597-4.012-7.354-2.704l-.001.001a5.57 5.57 0 0 0-2.672 2.703.75.75 0 0 1-1.363-.628 7.07 7.07 0 0 1 3.393-3.431 7 7 0 0 1 2.114-.62c-2.06-.408-3.606-2.243-3.606-4.432 0-2.487 1.996-4.517 4.475-4.517zm-.23 1.494c-1.636 0-2.976 1.343-2.976 3.018s1.34 3.018 2.975 3.018 2.975-1.343 2.975-3.018-1.34-3.017-2.975-3.017m-8.752.065a2.08 2.08 0 0 1 1.784 1.345h1.375l.077.004a.75.75 0 0 1-.077 1.496H5.036a2.08 2.08 0 0 1-1.95 1.35c-1.166 0-2.085-.958-2.086-2.1a2.09 2.09 0 0 1 2.086-2.102zm-.167 1.493a.59.59 0 0 0-.586.602c0 .336.271.6.586.6a.59.59 0 0 0 .581-.518 1 1 0 0 1 0-.165.59.59 0 0 0-.58-.519m17.828-1.5A2.09 2.09 0 0 1 23 12.346a2.09 2.09 0 0 1-2.085 2.1c-.843 0-1.555-.5-1.887-1.207l-.062-.143H17.58a.75.75 0 0 1 0-1.5h1.384a2.08 2.08 0 0 1 1.95-1.352m0 1.5a.59.59 0 0 0-.586.6v.004a.596.596 0 0 0 .586.598.59.59 0 0 0 .585-.6.59.59 0 0 0-.585-.602M5.745 3.942A2.09 2.09 0 0 1 7.83 6.043c0 .308-.066.602-.185.866l1.139 1.152a.75.75 0 0 1-1.068 1.054L6.583 7.968c-.257.113-.54.177-.838.177-1.167 0-2.086-.96-2.086-2.102 0-1.156.923-2.1 2.086-2.1m0 1.5a.59.59 0 0 0-.586.601c0 .337.27.601.586.602.137 0 .267-.05.37-.136a1 1 0 0 1 .075-.076.6.6 0 0 0 .14-.39.59.59 0 0 0-.585-.6m12.501-1.502c1.166 0 2.085.959 2.085 2.101a2.09 2.09 0 0 1-2.085 2.102c-.302 0-.588-.065-.845-.18l-1.138 1.15a.75.75 0 0 1-1.066-1.054l1.145-1.16a2.1 2.1 0 0 1-.182-.858c0-1.156.923-2.1 2.086-2.1m0 1.5a.59.59 0 0 0-.586.601c0 .337.27.601.586.602a.59.59 0 0 0 .585-.602c0-.337-.27-.6-.585-.6m-6.25-4.194a2.09 2.09 0 0 1 2.085 2.102c0 .892-.55 1.658-1.335 1.961v1.638a.75.75 0 0 1-1.5 0V5.313A2.11 2.11 0 0 1 9.91 3.351a2.09 2.09 0 0 1 2.086-2.102m0 1.5a.59.59 0 0 0-.586.602c0 .336.27.6.586.6a.59.59 0 0 0 .585-.6.59.59 0 0 0-.585-.602"/></g><defs><clipPath id="a"><path fill="currentColor" d="M0 0h24v24H0z"/></clipPath></defs></svg>