<svg xmlns="http://www.w3.org/2000/svg" width="24" height="24" fill="none" viewBox="0 0 24 24"><g fill="currentColor" fill-rule="evenodd" clip-path="url(#a)" clip-rule="evenodd"><path d="M8.315 13.3c.274 0 .537.07.769.191a6.2 6.2 0 0 0 2.927.723c1.052 0 2.052-.26 2.926-.723.242-.13.505-.19.768-.19l.204.014q.101.012.196.036c3.38.944 5.895 3.836 5.895 7.39 0 1.245-1.042 2.26-2.337 2.26H4.337C3.042 23 2 21.985 2 20.74c0-3.544 2.505-6.527 5.905-7.39.127-.03.264-.05.4-.05zm7.337 1.497c-1.094.612-2.357.923-3.652.923a8 8 0 0 1-3.266-.704l-.428-.21c-2.79.714-4.727 3.144-4.727 5.935 0 .412.337.753.758.753h15.326a.756.756 0 0 0 .758-.753c0-2.665-1.798-5.001-4.504-5.866zM12.01 1c3.2 0 5.79 2.47 5.79 5.523s-2.59 5.522-5.79 5.522-5.79-2.47-5.79-5.522S8.81 1 12.01 1m-.02 4.91c-.169 0-.337.03-.348.09a9 9 0 0 1-.316.814s-.158.482-.537.663c-.379.18-.726.21-1.295.21-.56 0-1.06-.117-1.073-.12 0 0-.41-.13-.568-.793L7.8 6.558c.02 2.203 1.896 3.981 4.21 3.981 2.326 0 4.21-1.797 4.21-4.016l-.001-.13q-.04.157-.093.39c-.155.681-.555.78-.568.784 0 0-.506.12-1.075.12-.568 0-.916-.03-1.295-.21-.378-.181-.536-.663-.536-.663-.004-.01-.191-.427-.316-.814-.011-.06-.179-.09-.347-.09m.02-3.404c-1.756 0-3.27 1.034-3.899 2.501.289-.02.606-.03.94-.03.874 0 1.864.08 2.664.29h.6c.81-.21 1.79-.29 2.674-.29l-.032.01c.342 0 .666.013.96.035-.623-1.475-2.137-2.516-3.907-2.516"/></g><defs><clipPath id="a"><path fill="currentColor" d="M0 0h24v24H0z"/></clipPath></defs></svg>