<svg xmlns="http://www.w3.org/2000/svg" width="24" height="24" fill="none" viewBox="0 0 24 24"><g fill="currentColor" clip-path="url(#a)"><path fill-rule="evenodd" d="M15.9 12.838q.102.014.2.036c3.39.902 5.9 4.023 5.9 7.748C22 21.94 20.95 23 19.66 23H4.34C3.05 23 2 21.94 2 20.622c0-3.715 2.5-6.846 5.9-7.748.13-.03.27-.05.4-.05.27 0 .53.07.77.199a6.1 6.1 0 0 0 2.93.752 6 6 0 0 0 2.93-.752c.24-.13.5-.199.77-.199zM8.28 14.34c-2.81.743-4.78 3.329-4.78 6.281 0 .476.38.862.84.862h15.3c.46 0 .84-.386.84-.862 0-2.85-1.84-5.376-4.518-6.207l-.262-.074a.1.1 0 0 0-.033.006q-.01.004-.017.004a7.6 7.6 0 0 1-3.65.941c-1.27 0-2.54-.327-3.65-.941l-.05-.01z" clip-rule="evenodd"/><path d="M16.523 7.395c.008.099.017.198.017.297 0 2.487-2.04 4.508-4.55 4.508A4.526 4.526 0 0 1 7.5 8.217l1.42-.149A3.1 3.1 0 0 0 12 10.783 3.1 3.1 0 0 0 15.11 7.7c0-.054-.008-.105-.015-.153q-.014-.07-.015-.142l1.43-.158q.005.075.012.149M11.06 1.104c.11-.13.31-.14.44-.021l2.04 2.368.02.02c.12.119.32.109.44-.01l1.64-1.595c.06-.03.12-.05.19-.05l.065.01a.32.32 0 0 1 .245.318l-.06 3.586h-.02c.01.01.02.03.02.03l-1.56.169c-.01-.01-.01-.02-.01-.02l-6.92.802v-.03h-.01c0-.01.01-.04.01-.04l-.86-3.378c-.03-.06-.02-.129 0-.188a.32.32 0 0 1 .41-.188l1.96 1.15q.015.017.03.019c.15.079.34.01.42-.139l1.48-2.774c.01-.02.02-.03.03-.04"/></g><defs><clipPath id="a"><path fill="currentColor" d="M0 0h24v24H0z"/></clipPath></defs></svg>